<?xml version="1.0" encoding="UTF-8"?>
<svg version="1.1" xmlns="http://www.w3.org/2000/svg" width="1146" height="1162">
<path d="M0 0 C378.18 0 756.36 0 1146 0 C1146 383.46 1146 766.92 1146 1162 C767.82 1162 389.64 1162 0 1162 C0 778.54 0 395.08 0 0 Z " fill="#FEFEFE" transform="translate(0,0)"/>
<path d="M0 0 C378.18 0 756.36 0 1146 0 C1146 383.46 1146 766.92 1146 1162 C767.82 1162 389.64 1162 0 1162 C0 778.54 0 395.08 0 0 Z M466.6875 64.25 C465.95773956 64.35604553 465.22797913 64.46209106 464.47610474 64.5713501 C449.83458006 66.71235844 435.38546828 69.51853627 421 73 C419.94651367 73.25475098 418.89302734 73.50950195 417.80761719 73.77197266 C341.9829881 92.46444304 271.5698823 129.31390557 213 181 C212.16726562 181.7321875 211.33453125 182.464375 210.4765625 183.21875 C207.96298472 185.4567528 205.47842235 187.72310415 203 190 C202.42556152 190.52400391 201.85112305 191.04800781 201.25927734 191.58789062 C191.00837616 200.95803984 181.36171941 210.74464894 172 221 C171.13503906 221.9384375 170.27007812 222.876875 169.37890625 223.84375 C164.02195732 229.71132665 158.9457435 235.78346278 154 242 C153.21616943 242.98299072 153.21616943 242.98299072 152.41650391 243.98583984 C140.42645094 259.07186764 129.61330013 274.76308748 119.26660156 291.01171875 C118.37336458 292.4139011 117.47365594 293.81197104 116.56933594 295.20703125 C116.11075195 295.92246094 115.65216797 296.63789063 115.1796875 297.375 C114.76187012 298.02210938 114.34405273 298.66921875 113.91357422 299.3359375 C112.83958427 300.97580379 112.83958427 300.97580379 113 303 C112.34 303 111.68 303 111 303 C110.59652344 303.80695313 110.19304687 304.61390625 109.77734375 305.4453125 C109.4935083 306.01282227 109.20967285 306.58033203 108.91723633 307.16503906 C108.24598335 308.50787956 107.57527474 309.85099227 106.9050293 311.19433594 C104.70696141 315.59702054 102.49945541 319.9947598 100.28068542 324.38705444 C98.95531939 327.01234134 97.63341388 329.63936407 96.3117981 332.26654053 C95.65366967 333.57282847 94.99409857 334.87839072 94.33297729 336.1831665 C90.20812881 344.32631806 86.41586494 352.52939569 83 361 C82.16982386 362.95967381 81.33683181 364.91815908 80.5 366.875 C78.18824678 372.41161274 76.1716537 378.03036772 74.1875 383.69140625 C73.17279953 386.51854869 72.08826075 389.28898678 70.9375 392.0625 C56.32877777 428.04584306 49.24313233 470.48490101 46 509 C45.86972412 510.49660156 45.86972412 510.49660156 45.73681641 512.0234375 C44.81617314 523.92403273 44.7566073 535.81923123 44.75 547.75 C44.74932526 548.85126221 44.74865051 549.95252441 44.74795532 551.0871582 C44.76677174 570.53946657 45.63211699 589.69396328 48 609 C48.08485657 609.70068604 48.16971313 610.40137207 48.25714111 611.12329102 C51.87062429 640.70569568 58.04361071 669.55029284 67 698 C67.29986816 698.96389648 67.59973633 699.92779297 67.90869141 700.92089844 C75.82737514 726.18866027 86.14160454 750.34431515 98 774 C98.74467529 775.49321777 98.74467529 775.49321777 99.50439453 777.01660156 C106.27346629 790.51947802 113.68748888 803.39186559 122 816 C122.69609375 817.07121094 123.3921875 818.14242187 124.109375 819.24609375 C138.1084735 840.56290284 153.54951345 860.64582478 170.734375 879.48828125 C171.97810903 880.86711053 173.21525217 882.25240417 174.42016602 883.6652832 C179.32118784 889.39109145 184.57848057 894.73121377 189.9152832 900.0456543 C191.43491668 901.5599258 192.94912517 903.0794743 194.46289062 904.59960938 C199.80281135 909.94356628 205.23584891 915.11151567 211 920 C212.12995458 920.98447513 213.25889111 921.97012019 214.38671875 922.95703125 C222.04650673 929.60192883 229.8719468 935.93800308 238 942 C238.87543457 942.65500488 238.87543457 942.65500488 239.76855469 943.32324219 C247.0258534 948.7398934 254.37549783 954.02032499 261.8125 959.1875 C262.50061768 959.66952881 263.18873535 960.15155762 263.89770508 960.64819336 C267.14789764 963.14255289 267.14789764 963.14255289 271 964 C271 964.66 271 965.32 271 966 C271.57105469 966.268125 272.14210938 966.53625 272.73046875 966.8125 C279.1554953 969.91775925 285.11868321 973.48330056 291.1171875 977.328125 C293.53244392 978.72884281 295.28044838 979.55331036 298 980 C298 980.66 298 981.32 298 982 C304.99100373 985.5540857 312.02722871 988.97088848 319.15087891 992.25 C323.12876203 994.09259972 327.04293218 996.03029436 330.94042969 998.03686523 C339.4151589 1002.38922922 348.03279259 1005.80684526 357 1009 C361.60721545 1010.68199057 366.13339861 1012.46352532 370.625 1014.4375 C376.03847388 1016.71007362 381.48008572 1018.38737459 387.14404297 1019.91601562 C390.84284954 1020.9346411 394.47813422 1022.11670432 398.125 1023.30859375 C408.03109471 1026.4579942 418.11466989 1028.78174594 428.25 1031.0625 C429.70297485 1031.39074265 429.70297485 1031.39074265 431.18530273 1031.72561646 C447.05595618 1035.29214158 462.80720051 1038.30075561 479 1040 C480.32978186 1040.1463816 481.6595333 1040.2930398 482.98925781 1040.43994141 C519.33302233 1044.38631413 555.69235691 1044.18085281 592 1040 C593.21220215 1039.86078125 594.4244043 1039.7215625 595.67333984 1039.578125 C675.59867189 1030.01497767 751.77582296 1000.56770303 840 938 C840.90492188 937.29746094 841.80984375 936.59492187 842.7421875 935.87109375 C858.86180796 923.21322785 873.86747475 909.20206734 888.375 894.75 C889.21957764 893.91009521 890.06415527 893.07019043 890.93432617 892.20483398 C895.82962875 887.29692089 900.49930491 882.2704769 905 877 C905.93769234 875.92871513 906.87644232 874.8583548 907.81640625 873.7890625 C926.22553053 852.65610533 942.3993763 829.90651573 957 806 C957.6489624 804.93966553 957.6489624 804.93966553 958.31103516 803.85791016 C990.77271153 750.51999626 1011.22055626 691.30875662 1022 630 C1022.28768128 628.44269371 1022.57543551 626.8854009 1022.86328125 625.328125 C1023.71223705 620.56847492 1024.38796872 615.79550436 1025 611 C1025.13680176 609.9378125 1025.27360352 608.875625 1025.41455078 607.78125 C1030.06478372 569.86638569 1029.67790219 530.89523812 1025 493 C1024.8691803 491.93483154 1024.8691803 491.93483154 1024.73571777 490.84814453 C1013.67616284 401.83536383 978.44728129 315.92788445 922 246 C920.89591797 244.62134766 920.89591797 244.62134766 919.76953125 243.21484375 C911.54680089 233.04501877 903.16417223 222.86459134 893.76171875 213.7578125 C891.88981219 211.89005651 890.1629084 209.94095435 888.4375 207.9375 C883.47054645 202.18392485 878.11197902 197.02904867 872.35546875 192.07421875 C869.98408283 189.98598339 867.6717623 187.84554239 865.36303711 185.6887207 C859.11006632 179.85303982 852.71266456 174.3074914 846 169 C845.07936768 168.26257568 845.07936768 168.26257568 844.14013672 167.51025391 C786.45323032 121.34677791 718.44607786 88.20120838 646.36108398 71.78051758 C643.96913131 71.22505359 641.58372215 70.64108089 639.20336914 70.0378418 C628.45316317 67.33302187 617.67411662 65.62873488 606.68774414 64.18969727 C603.8040965 63.81139756 600.92255695 63.41938284 598.04101562 63.02539062 C596.15896183 62.7726345 594.27680359 62.52065464 592.39453125 62.26953125 C591.55767288 62.15599808 590.72081451 62.0424649 589.8585968 61.92549133 C578.13384221 60.40283404 566.42183422 59.84356725 554.60546875 59.83203125 C553.3750032 59.82870285 552.14453766 59.82537445 550.87678528 59.82194519 C548.28773365 59.81691894 545.69867564 59.81453552 543.10961914 59.81469727 C539.23507429 59.81252665 535.36082224 59.79436754 531.48632812 59.77539062 C509.7106323 59.72482807 488.23053545 61.06321494 466.6875 64.25 Z " fill="#FEFEFE" transform="translate(0,0)"/>
<path d="M0 0 C41.54781185 -0.9506969 84.22377753 5.7786786 122.61328125 22.06201172 C123.21285645 22.31402344 123.81243164 22.56603516 124.43017578 22.82568359 C151.61532215 34.32377236 177.32344505 48.80374678 200.05078125 67.75976562 C201.64355876 69.08724613 203.25289927 70.39269151 204.86328125 71.69873047 C219.35088074 83.62211567 233.29931639 97.06684873 244.61328125 112.06201172 C245.63256999 113.36660541 246.6535505 114.66987824 247.67578125 115.97216797 C278.36135106 155.26784277 299.48934407 200.96310295 308.61328125 250.06201172 C308.82210937 251.16834961 309.0309375 252.2746875 309.24609375 253.41455078 C319.70968511 311.67622484 311.86183747 373.7406517 287.86328125 427.68701172 C287.52546631 428.44755859 287.18765137 429.20810547 286.83959961 429.99169922 C283.33581249 437.80267931 279.51090309 445.44172364 275.61328125 453.06201172 C275.28328125 453.72201172 274.95328125 454.38201172 274.61328125 455.06201172 C273.95328125 455.06201172 273.29328125 455.06201172 272.61328125 455.06201172 C272.49718506 455.80064453 272.38108887 456.53927734 272.26147461 457.30029297 C271.60881341 460.08104759 270.75747092 461.84982054 269.2421875 464.24951172 C268.75524414 465.02431885 268.26830078 465.79912598 267.76660156 466.59741211 C267.24163086 467.41072998 266.71666016 468.22404785 266.17578125 469.06201172 C265.63663086 469.90562256 265.09748047 470.7492334 264.54199219 471.6184082 C259.92680845 478.75238483 254.94499799 485.44959301 249.61328125 492.06201172 C248.94941406 492.91794922 248.28554688 493.77388672 247.6015625 494.65576172 C243.10373197 500.42174325 238.25803901 505.82107915 233.28125 511.17138672 C230.94641104 513.70108047 228.67855372 516.2720948 226.42578125 518.87451172 C223.43499908 522.25198087 220.29422886 525.23068961 216.84765625 528.13623047 C214.18976871 530.42703214 211.66405228 532.84006719 209.11328125 535.24951172 C189.75438578 553.21031652 166.28259798 567.73115647 142.54248047 579.12988281 C140.7360031 580.00271635 138.94170301 580.90062764 137.1484375 581.80029297 C86.07880647 606.78937002 24.8955568 616.10866154 -31.38671875 608.06201172 C-32.29502441 607.93842285 -33.20333008 607.81483398 -34.13916016 607.6875 C-101.24542367 598.34043476 -161.42143063 566.92488519 -209.26171875 519.43701172 C-210.12949951 518.57857666 -210.99728027 517.7201416 -211.89135742 516.83569336 C-217.81023301 510.88735089 -223.19074403 504.64795299 -228.38671875 498.06201172 C-228.96776367 497.32966309 -229.54880859 496.59731445 -230.14746094 495.84277344 C-242.07186669 480.68959439 -252.33361103 465.08508063 -261.38671875 448.06201172 C-261.90032959 447.11068359 -261.90032959 447.11068359 -262.42431641 446.14013672 C-299.61713099 376.8960304 -306.31045916 293.09738152 -284.61791992 217.99926758 C-278.76288941 198.60730162 -270.9096665 179.93262085 -261.38671875 162.06201172 C-261.02143066 161.36479004 -260.65614258 160.66756836 -260.27978516 159.94921875 C-249.48712243 139.42718734 -236.13029413 120.34669855 -220.421875 103.28076172 C-218.59127455 101.28502073 -216.82835392 99.2497056 -215.07421875 97.18701172 C-207.67676441 88.73033759 -199.68300007 81.05046521 -190.88671875 74.06591797 C-188.72857501 72.33603088 -186.67952983 70.54931578 -184.63671875 68.68701172 C-172.94460194 58.41212119 -159.65268099 50.11951609 -146.38671875 42.06201172 C-145.4119458 41.46308105 -145.4119458 41.46308105 -144.41748047 40.85205078 C-101.75458994 14.84606993 -49.70441589 1.29141997 0 0 Z " fill="#579773" transform="translate(526.38671875,245.93798828125)"/>
<path d="M0 0 C3.79892167 3.44197601 5.89011206 7.64793508 8.328125 12.109375 C8.83601562 13.00785156 9.34390625 13.90632813 9.8671875 14.83203125 C14.38663556 23.25674597 19.328125 34.37032596 19.328125 44.109375 C20.36839844 43.6453125 21.40867187 43.18125 22.48046875 42.703125 C36.69832739 36.45175361 51.14673068 30.83352672 65.62402344 25.21826172 C67.40563221 24.52710393 69.18720785 23.83586075 70.96875 23.14453125 C71.84529236 22.80440002 72.72183472 22.4642688 73.62493896 22.11383057 C83.18573562 18.39758448 92.70600226 14.58175539 102.21655273 10.73901367 C103.34005127 10.28631104 104.4635498 9.8336084 105.62109375 9.3671875 C106.5855542 8.9767627 107.55001465 8.58633789 108.54370117 8.18408203 C117.0096327 4.91647742 125.3408724 3.14366035 134.078125 6.671875 C141.08614193 10.28399262 147.50985216 15.57930225 150.328125 23.109375 C152.73317354 31.23894012 152.90162755 38.51350318 149.3203125 46.30078125 C143.83638356 55.87041884 135.68633648 59.63376735 125.78515625 63.53125 C124.51507654 64.04247839 123.24546152 64.55486249 121.97627258 65.06829834 C118.5046129 66.46832185 115.02610563 67.85052212 111.54590607 69.22915649 C108.51646495 70.43151599 105.49089095 71.64345293 102.46520805 72.85523224 C92.81808299 76.71847035 83.15893193 80.55106336 73.49682617 84.37664795 C69.28436045 86.04507535 65.07289473 87.71602334 60.86132812 89.38671875 C52.68453495 92.62998207 44.50669549 95.87059617 36.328125 99.109375 C38.3147614 106.77613905 40.65158492 114.25359032 43.26953125 121.7265625 C43.63787582 122.78674591 44.0062204 123.84692932 44.38572693 124.9392395 C45.15802615 127.15995927 45.93205962 129.38007663 46.70776367 131.59960938 C47.89426211 134.9947826 49.07551456 138.39174561 50.25585938 141.7890625 C51.01011463 143.95583433 51.76466163 146.12250463 52.51953125 148.2890625 C52.87165176 149.30056366 53.22377228 150.31206482 53.58656311 151.35421753 C53.91708176 152.29935211 54.2476004 153.24448669 54.58813477 154.21826172 C55.02090477 155.45755936 55.02090477 155.45755936 55.4624176 156.72189331 C56.36383632 159.20786108 57.33308856 161.65954347 58.328125 164.109375 C59.0809375 164.12355469 59.83375 164.13773438 60.609375 164.15234375 C70.16693318 164.58150595 78.37353202 167.00567533 87.328125 170.109375 C88.318125 170.439375 89.308125 170.769375 90.328125 171.109375 C90.4415625 170.37589844 90.555 169.64242187 90.671875 168.88671875 C92.15186862 162.62317434 96.20098945 157.55806553 101.390625 153.859375 C110.7159922 148.25789604 120.34777216 144.47695228 131.328125 146.109375 C137.94518982 147.86429079 143.29555916 151.5619852 147.328125 157.109375 C151.0469108 163.81431797 151.48813682 171.09235407 152.390625 178.609375 C152.55111328 179.88296875 152.71160156 181.1565625 152.87695312 182.46875 C153.20132446 185.04287756 153.52171536 187.61750982 153.83813477 190.19262695 C154.49191175 195.41860808 155.20140952 200.63628182 155.91601562 205.85424805 C157.08527963 215.08990974 156.50134443 221.13636374 151.328125 229.109375 C147.48952452 233.63695506 143.0015668 237.21822773 137.328125 239.109375 C127.94494946 239.8271967 118.84418343 238.30806432 109.6328125 236.73828125 C108.14949597 236.49312593 106.66602266 236.24891755 105.18240356 236.00559998 C101.30847302 235.36812198 97.43644278 234.71980697 93.56481934 234.06848145 C87.36440905 233.02722786 81.16123994 232.00255944 74.95801163 230.97825432 C72.81173463 230.62222595 70.66630583 230.26142002 68.52096558 229.89979553 C61.47309339 228.721031 54.45462881 227.67567458 47.328125 227.109375 C41.74566646 238.06831138 36.42124787 249.12627842 31.3515625 260.33203125 C30.57477554 262.04149098 29.7910441 263.74780937 29.00097656 265.45117188 C27.84218003 267.95038856 26.7040636 270.45809115 25.5703125 272.96875 C25.21323212 273.7291156 24.85615173 274.4894812 24.48825073 275.27288818 C22.62912059 279.2447058 22.62912059 279.2447058 22.98974609 283.46533203 C24.91619723 285.8317534 26.9622019 288.03509735 29.078125 290.234375 C36.73689899 298.52491472 41.80825213 306.07583793 41.59765625 317.58203125 C40.73441211 325.67650894 37.54292424 331.9940354 31.546875 337.453125 C24.6030805 342.63652089 16.925909 344.6825606 8.328125 344.109375 C0.9251864 342.63149898 -4.04184423 338.95342271 -9.671875 334.109375 C-10.76935998 333.17297631 -11.86702884 332.23679311 -12.96484375 331.30078125 C-14.76852966 329.75927779 -16.56943995 328.21487124 -18.36450195 326.66333008 C-22.03728104 323.48964808 -25.76104941 320.39855165 -29.546875 317.359375 C-44.62487509 305.03900324 -44.62487509 305.03900324 -46.05078125 295.6015625 C-46.78834234 284.08305525 -41.81592157 273.18439979 -36.66699219 263.12304688 C-34.99190838 259.73342685 -33.58759287 256.23841695 -32.171875 252.734375 C-31.86781738 251.98905518 -31.56375977 251.24373535 -31.25048828 250.47583008 C-29.36015375 245.83477116 -27.48721291 241.18672942 -25.65234375 236.5234375 C-24.89227162 234.65202483 -24.09595816 232.79531122 -23.28515625 230.9453125 C-22.57939453 229.32496094 -22.57939453 229.32496094 -21.859375 227.671875 C-21.41980469 226.68316406 -20.98023438 225.69445312 -20.52734375 224.67578125 C-19.36263021 222.03710938 -19.36263021 222.03710938 -20.671875 219.109375 C-22.75591992 217.4504522 -22.75591992 217.4504522 -25.296875 215.859375 C-34.78846433 209.37368129 -40.97981881 202.40004862 -43.80078125 191.01171875 C-45.37769606 182.62515106 -44.88030845 173.98041855 -44.796875 165.484375 C-44.78682603 163.69922377 -44.77770357 161.91406706 -44.76953125 160.12890625 C-44.7476675 155.78892569 -44.71324315 151.44921168 -44.671875 147.109375 C-45.45578613 147.89401123 -46.23969727 148.67864746 -47.04736328 149.48706055 C-48.5806918 151.01910535 -50.11779287 152.54742373 -51.6640625 154.06640625 C-55.55593777 157.90176051 -59.25667383 161.83135013 -62.8203125 165.97265625 C-65.67656562 169.26879646 -68.6150891 172.48982363 -71.546875 175.71875 C-73.34591049 177.74266493 -75.04368018 179.80850648 -76.734375 181.921875 C-81.58660457 187.62089255 -88.42442159 191.50568567 -95.87890625 192.36328125 C-102.79574709 192.70095379 -108.35926009 190.79763686 -114.671875 188.109375 C-114.671875 187.449375 -114.671875 186.789375 -114.671875 186.109375 C-115.2596875 185.85285156 -115.8475 185.59632813 -116.453125 185.33203125 C-122.29853077 182.11088335 -126.57635565 175.76437805 -129.01171875 169.66015625 C-130.891336 162.39749316 -130.81238925 154.30724493 -127.33203125 147.55859375 C-121.95644723 139.62802627 -115.26376863 132.41219509 -108.35693359 125.79492188 C-106.6388876 124.07637804 -105.06853749 122.28641635 -103.4921875 120.4375 C-99.63650061 116.00424468 -95.53604854 111.86352867 -91.359375 107.734375 C-90.2005481 106.58122803 -90.2005481 106.58122803 -89.01831055 105.40478516 C-85.74811464 102.1507767 -82.4719401 98.90281234 -79.19628906 95.65429688 C-76.79022215 93.26642148 -74.38724462 90.87546707 -71.984375 88.484375 C-71.25500732 87.76330566 -70.52563965 87.04223633 -69.77416992 86.29931641 C-65.72466905 82.26898975 -61.86339091 78.14298603 -58.15197754 73.79840088 C-55.66999677 70.96607701 -52.86942074 68.48924839 -50.078125 65.96875 C-48.44971122 64.2306346 -48.44971122 64.2306346 -48.77734375 62.10546875 C-49.76903986 59.89255734 -50.93834147 58.28885726 -52.484375 56.421875 C-60.05694311 46.66491224 -61.90325759 36.04839158 -60.3984375 23.90234375 C-58.08552041 13.18873725 -52.45241194 5.53704351 -43.671875 -0.890625 C-29.87307933 -9.17459587 -13.21322528 -9.34970912 0 0 Z " fill="#FDFEFE" transform="translate(521.671875,380.890625)"/>
<path d="M0 0 C3.9206027 -0.00218256 7.84092158 -0.02038102 11.76147461 -0.03930664 C25.11761497 -0.06996921 38.24562541 0.23231155 51.50265503 1.90402222 C53.77458993 2.18718076 56.04812093 2.4421524 58.32421875 2.68945312 C80.97330075 5.17494638 102.77018781 9.2616217 124.75952148 15.18530273 C126.95603431 15.75860939 129.15264342 16.33154737 131.34936523 16.90405273 C157.3177047 23.80112973 182.29910671 33.10778554 206.75952148 44.18530273 C207.77771973 44.64549805 208.79591797 45.10569336 209.8449707 45.57983398 C256.80155904 66.98753463 303.91321401 97.16338463 340.00170898 134.42358398 C341.86946498 136.29549055 343.81856714 138.02239433 345.82202148 139.74780273 C351.57559664 144.71475628 356.73047281 150.07332372 361.68530273 155.82983398 C363.7735381 158.2012199 365.9139791 160.51354044 368.07080078 162.82226562 C373.90634552 169.07509054 379.45404066 175.47121254 384.75952148 182.18530273 C385.26177246 182.81500977 385.76402344 183.4447168 386.28149414 184.09350586 C404.51004082 206.97740916 420.66040198 231.12030239 434.52368164 256.89428711 C435.35792654 258.44082091 436.19892282 259.98372915 437.04614258 261.52319336 C462.66071379 308.06755305 479.20067774 359.8583029 487.75952148 412.18530273 C487.89455078 412.98693848 488.02958008 413.78857422 488.16870117 414.61450195 C489.19464011 420.78660125 490.02436107 426.97213596 490.75952148 433.18530273 C490.89777344 434.34932617 491.03602539 435.51334961 491.1784668 436.71264648 C495.47373301 474.60406941 495.61462588 513.34438786 490.75952148 551.18530273 C490.64737305 552.07910645 490.53522461 552.97291016 490.41967773 553.89379883 C489.82464351 558.46031917 489.09465694 562.98826508 488.25463867 567.51586914 C487.88499483 569.50881085 487.52527027 571.50359708 487.1706543 573.49926758 C472.76445464 654.3484105 439.87035537 730.64322679 388.75952148 795.18530273 C387.80239258 796.41506836 387.80239258 796.41506836 386.82592773 797.66967773 C374.09042577 813.8736844 360.04311575 828.97093771 345.50952148 843.56030273 C344.6696167 844.40488037 343.82971191 845.24945801 342.96435547 846.11962891 C338.05644238 851.01493149 333.02999839 855.68460764 327.75952148 860.18530273 C326.68823661 861.12299507 325.61787628 862.06174506 324.54858398 863.00170898 C304.88755995 880.12672348 283.82993407 895.32864077 261.75952148 909.18530273 C261.16026855 909.56219238 260.56101562 909.93908203 259.94360352 910.32739258 C196.21167049 950.13083296 123.39364642 973.83236839 48.75952148 981.18530273 C47.79788086 981.2882666 46.83624023 981.39123047 45.84545898 981.49731445 C12.24943099 985.04169541 -21.71877179 983.86139843 -55.24047852 980.18530273 C-56.97056152 980.00837891 -56.97056152 980.00837891 -58.7355957 979.82788086 C-75.3031578 978.08080997 -91.4496653 974.54061178 -107.67797852 970.87280273 C-108.69001343 970.64641113 -109.70204834 970.42001953 -110.74475098 970.18676758 C-124.08663298 967.18133653 -137.0183305 963.52203867 -149.92318726 958.99287415 C-154.90534627 957.25660161 -159.91510207 955.60612374 -164.94360352 954.00952148 C-172.20562877 951.68215436 -179.07491935 949.06083156 -185.94750977 945.71264648 C-188.60896835 944.47820958 -191.25153135 943.38399573 -193.98266602 942.32202148 C-199.33753568 940.20610179 -204.43225492 937.68491696 -209.55297852 935.06030273 C-211.2772917 934.18083891 -213.0025241 933.30317454 -214.72875977 932.42749023 C-215.47681885 932.04447754 -216.22487793 931.66146484 -216.99560547 931.2668457 C-219.37201591 930.12193018 -221.78812725 929.15512552 -224.24047852 928.18530273 C-226.3535843 927.1618914 -228.45758743 926.11951141 -230.55297852 925.06030273 C-231.62161133 924.52147461 -232.69024414 923.98264648 -233.79125977 923.42749023 C-235.00362305 922.81260742 -235.00362305 922.81260742 -236.24047852 922.18530273 C-236.24047852 921.52530273 -236.24047852 920.86530273 -236.24047852 920.18530273 C-237.04098633 919.9700293 -237.84149414 919.75475586 -238.66625977 919.53295898 C-243.30999516 917.78204236 -247.2475061 915.27077431 -251.42797852 912.62280273 C-253.02393414 911.61879228 -254.62152359 910.61737295 -256.22094727 909.61889648 C-256.9211499 909.17602295 -257.62135254 908.73314941 -258.34277344 908.27685547 C-260.35119027 907.03790111 -260.35119027 907.03790111 -263.24047852 906.18530273 C-263.24047852 905.52530273 -263.24047852 904.86530273 -263.24047852 904.18530273 C-264.34709839 903.77586426 -264.34709839 903.77586426 -265.47607422 903.3581543 C-268.08287508 902.25216901 -270.15672645 901.03612875 -272.47094727 899.41967773 C-273.26509033 898.86626709 -274.0592334 898.31285645 -274.87744141 897.74267578 C-275.71911865 897.14624268 -276.5607959 896.54980957 -277.42797852 895.93530273 C-278.30639404 895.31631104 -279.18480957 894.69731934 -280.08984375 894.05957031 C-289.02593737 887.71169654 -297.67465753 881.0213396 -306.24047852 874.18530273 C-306.78526855 873.75378906 -307.33005859 873.32227539 -307.89135742 872.87768555 C-314.25479225 867.83103864 -320.28175553 862.49091044 -326.22094727 856.95874023 C-328.39578762 854.93698065 -330.62525138 852.99494536 -332.88110352 851.06420898 C-337.90109247 846.68875448 -342.58993119 841.98598183 -347.28613281 837.27001953 C-348.80040431 835.75038605 -350.31995282 834.23617756 -351.84008789 832.72241211 C-357.18404479 827.38249139 -362.35199418 821.94945382 -367.24047852 816.18530273 C-368.22495365 815.05534816 -369.2105987 813.92641162 -370.19750977 812.79858398 C-376.84293713 805.13818529 -383.17150724 797.30871396 -389.24047852 789.18530273 C-389.67183105 788.61231445 -390.10318359 788.03932617 -390.54760742 787.44897461 C-410.20390524 761.29798912 -426.64225972 733.41337734 -441.24047852 704.18530273 C-441.65523437 703.36368652 -442.06999023 702.54207031 -442.49731445 701.69555664 C-467.52643757 651.89779448 -480.98771347 596.2892021 -487.24047852 541.18530273 C-487.36052246 540.1455127 -487.48056641 539.10572266 -487.60424805 538.03442383 C-489.3891937 521.72518117 -489.44385909 505.38543826 -489.49047852 488.99780273 C-489.49583618 487.94951294 -489.50119385 486.90122314 -489.50671387 485.82116699 C-489.62630205 454.95412869 -486.34752947 424.44079005 -479.89770508 394.26245117 C-479.24805232 391.22076343 -478.61429803 388.17608979 -477.98266602 385.13061523 C-474.34215045 367.76485534 -469.66349393 350.95818465 -463.91625977 334.17749023 C-462.97345572 331.39812569 -462.07984387 328.60317608 -461.17797852 325.81030273 C-459.17422941 319.79905541 -456.72769358 314.00902582 -454.24047852 308.18530273 C-453.89694336 307.34153076 -453.5534082 306.49775879 -453.19946289 305.62841797 C-449.95435976 297.69251036 -446.36089369 289.95820472 -442.61547852 282.24780273 C-442.31388824 281.62399719 -442.01229797 281.00019165 -441.7015686 280.35748291 C-437.15507611 270.95785485 -432.45205357 261.65272167 -427.52905273 252.44335938 C-427.10769043 251.65437256 -426.68632812 250.86538574 -426.25219727 250.05249023 C-425.88570068 249.37299316 -425.5192041 248.69349609 -425.14160156 247.9934082 C-424.11186258 246.0330169 -424.11186258 246.0330169 -423.24047852 243.18530273 C-422.58047852 243.18530273 -421.92047852 243.18530273 -421.24047852 243.18530273 C-420.9673584 242.45714355 -420.69423828 241.72898437 -420.4128418 240.97875977 C-419.28773959 238.29791439 -418.00690614 235.96160735 -416.48266602 233.48999023 C-415.94375732 232.6149585 -415.40484863 231.73992676 -414.84960938 230.83837891 C-414.27734619 229.92161377 -413.70508301 229.00484863 -413.11547852 228.06030273 C-412.52581299 227.11324463 -411.93614746 226.16618652 -411.32861328 225.19042969 C-407.2217069 218.64270584 -402.93515852 212.32721492 -398.24047852 206.18530273 C-397.31709131 204.94684545 -396.39534633 203.7071628 -395.47485352 202.46655273 C-377.95742426 178.89459438 -377.95742426 178.89459438 -368.50610352 168.66186523 C-366.61852096 166.59854223 -364.77430918 164.51019474 -362.93969727 162.40014648 C-351.75105262 149.58411691 -339.80461935 137.64447698 -327.24047852 126.18530273 C-326.30333008 125.32163086 -325.36618164 124.45795898 -324.40063477 123.56811523 C-318.53178319 118.20919547 -312.45561879 113.13619427 -306.24047852 108.18530273 C-305.60110352 107.67338379 -304.96172852 107.16146484 -304.30297852 106.6340332 C-236.35127606 52.38993864 -153.2407534 15.91550947 -55.99047852 2.93530273 C-55.31009521 2.85203735 -54.62971191 2.76877197 -53.92871094 2.6829834 C-35.89948137 0.505683 -18.14325829 -0.00112824 0 0 Z M-201.24047852 54.18530273 C-202.14846191 54.59748047 -203.05644531 55.0096582 -203.99194336 55.43432617 C-237.77372356 70.78799371 -269.3864448 90.89371069 -298.24047852 114.18530273 C-299.61913086 115.28938477 -299.61913086 115.28938477 -301.02563477 116.41577148 C-312.14621691 125.40722892 -322.95148862 134.66007009 -332.94750977 144.89233398 C-334.74018879 146.68501301 -336.50665058 148.3055266 -338.49047852 149.87280273 C-341.4595025 152.36948199 -343.82346213 155.07751973 -346.33032227 158.02514648 C-348.33467067 160.29182269 -350.44625002 162.38893538 -352.61547852 164.49780273 C-356.68691369 168.52109594 -360.29506312 172.7853556 -363.86938477 177.25170898 C-365.92846866 179.79927406 -368.0367105 182.2931217 -370.17675781 184.77270508 C-387.63593791 205.07206048 -403.12837619 227.84031344 -416.24047852 251.18530273 C-416.70695801 252.00901367 -417.1734375 252.83272461 -417.65405273 253.68139648 C-440.49118599 294.22323833 -457.94809218 337.73136735 -467.62475586 383.3034668 C-468.18000664 385.90226943 -468.76056221 388.49339066 -469.35375977 391.08374023 C-472.19330296 403.68530295 -474.03474765 416.42257352 -475.82202148 429.21020508 C-476.16930291 431.67926659 -476.5297674 434.14549194 -476.90063477 436.61108398 C-479.43527598 454.0907208 -479.42695477 471.68797664 -479.42578125 489.31542969 C-479.42796858 492.98115651 -479.44619899 496.64658186 -479.46508789 500.31225586 C-479.49880681 514.39910662 -478.89881175 528.19773629 -477.24047852 542.18530273 C-477.11471436 543.34634521 -476.9889502 544.5073877 -476.859375 545.70361328 C-474.35105508 568.58669473 -469.96024734 590.89756991 -464.24047852 613.18530273 C-463.98427734 614.18899902 -463.72807617 615.19269531 -463.46411133 616.22680664 C-456.50474759 643.13430897 -446.93918129 668.9900265 -435.24047852 694.18530273 C-434.57580566 695.63791504 -434.57580566 695.63791504 -433.89770508 697.11987305 C-418.59498832 730.50863489 -398.94014801 761.35478234 -376.24047852 790.18530273 C-375.27948242 791.42086914 -375.27948242 791.42086914 -374.29907227 792.68139648 C-370.22567408 797.86030984 -365.97770538 802.88166558 -361.67797852 807.87280273 C-361.147771 808.49074707 -360.61756348 809.10869141 -360.07128906 809.74536133 C-356.80925829 813.50541591 -353.42047027 817.07525194 -349.85668945 820.55102539 C-348.16721102 822.25938923 -346.60640693 824.04052784 -345.05297852 825.87280273 C-338.38905912 833.58734005 -331.04817533 840.81335834 -323.28735352 847.41967773 C-320.78333002 849.57963693 -318.36050154 851.82018266 -315.92797852 854.06030273 C-288.55404593 878.9867723 -257.14225897 899.41117792 -224.74047852 917.12280273 C-223.77440674 917.65429932 -222.80833496 918.1857959 -221.81298828 918.73339844 C-215.9433442 921.90448256 -210.01396451 924.6349047 -203.81518555 927.10327148 C-201.61796989 928.02666043 -199.65160195 929.02103689 -197.61547852 930.24780273 C-194.13768024 932.24431656 -190.69178253 933.68374576 -186.95922852 935.12280273 C-184.1285449 936.22904691 -181.34475772 937.42203748 -178.55297852 938.62280273 C-172.72255319 941.07097874 -166.80228533 943.05194965 -160.78344727 944.97436523 C-157.24047852 946.18530273 -157.24047852 946.18530273 -154.10375977 947.58374023 C-132.46120859 957.07869335 -107.33714413 961.04223344 -84.29077148 965.58032227 C-81.79192755 966.07593098 -79.29872087 966.58956738 -76.80688477 967.11889648 C-51.38471432 972.31093765 -25.30035818 973.42099574 0.57202148 973.43530273 C1.67423035 973.43597748 2.77643921 973.43665222 3.91204834 973.43734741 C106.74320777 973.33789395 207.40625663 939.49089812 329.75952148 845.18530273 C330.26870117 844.72124023 330.77788086 844.25717773 331.30249023 843.77905273 C340.18758969 835.674829 348.9845345 827.54778755 356.82202148 818.40405273 C358.74539973 816.20147442 360.72014593 814.05242193 362.70947266 811.90942383 C381.56561065 791.57697008 398.0053378 768.82286408 412.50708008 745.22045898 C413.60807093 743.43140251 414.72366756 741.65135176 415.84155273 739.87280273 C416.39198242 738.98592773 416.94241211 738.09905273 417.50952148 737.18530273 C417.95811523 736.46342773 418.40670898 735.74155273 418.86889648 734.99780273 C419.9800281 733.07313531 419.9800281 733.07313531 419.75952148 730.18530273 C420.41952148 730.18530273 421.07952148 730.18530273 421.75952148 730.18530273 C422.43360456 728.91838766 423.09852645 727.64659525 423.75952148 726.37280273 C424.13077148 725.66510742 424.50202148 724.95741211 424.88452148 724.22827148 C425.95637507 722.09609545 425.95637507 722.09609545 425.75952148 719.18530273 C426.41952148 719.18530273 427.07952148 719.18530273 427.75952148 719.18530273 C429.70037605 715.33281657 431.63659944 711.47802058 433.57202148 707.62280273 C434.11922852 706.53676758 434.66643555 705.45073242 435.23022461 704.33178711 C438.92212118 696.97036911 442.24610737 689.65066393 445.13452148 681.93530273 C446.74224695 677.70775957 448.45775027 673.58928981 450.38452148 669.49780273 C452.36363798 665.24270226 453.81380411 661.02560303 455.08374023 656.51342773 C456.32844614 652.22530796 458.01612663 648.09706753 459.63330078 643.93823242 C462.67072878 635.88939932 464.95287725 627.68313801 467.13452148 619.37280273 C467.3292807 618.63364624 467.52403992 617.89448975 467.72470093 617.13293457 C474.27538783 592.15227765 479.09262474 566.88908046 481.75952148 541.18530273 C481.84672455 540.3452771 481.93392761 539.50525146 482.02377319 538.63977051 C483.64883815 522.47597692 484.12476855 506.42420563 484.07202148 490.18530273 C484.06986633 488.98263763 484.06771118 487.77997253 484.06549072 486.54086304 C484.01115544 467.57894974 483.45517863 448.97624966 480.75952148 430.18530273 C480.60679779 429.11977173 480.60679779 429.11977173 480.45098877 428.03271484 C476.3703665 399.82542299 470.17314083 372.42962744 461.75952148 345.18530273 C461.49059082 344.30986816 461.22166016 343.43443359 460.94458008 342.5324707 C453.38562929 318.20050861 443.16502456 294.93753657 431.75952148 272.18530273 C431.01484619 270.69208496 431.01484619 270.69208496 430.25512695 269.16870117 C423.48709121 255.66789135 416.12992282 242.75452118 407.75952148 230.18530273 C407.15672363 229.27828613 406.55392578 228.37126953 405.93286133 227.43676758 C398.56557868 216.39619355 391.05098847 205.55334463 382.75952148 195.18530273 C382.11112305 194.35643555 381.46272461 193.52756836 380.79467773 192.67358398 C370.43000476 179.51108518 359.41068754 166.66029395 347.45874023 154.91967773 C345.75952148 153.18530273 345.75952148 153.18530273 343.75952148 150.62280273 C341.41072047 147.7602015 338.76722575 145.52789382 335.95483398 143.13061523 C333.67782925 141.11291353 331.56736686 138.99144654 329.44702148 136.81030273 C325.41906301 132.73414646 321.14964521 129.12240172 316.67749023 125.54467773 C314.19927152 123.54087037 311.77888972 121.48677289 309.37158203 119.39892578 C296.61109703 108.3754912 282.96311503 98.26899628 268.75952148 89.18530273 C267.74889648 88.51499023 266.73827148 87.84467773 265.69702148 87.15405273 C264.70702148 86.50436523 263.71702148 85.85467773 262.69702148 85.18530273 C261.81916992 84.60780273 260.94131836 84.03030273 260.03686523 83.43530273 C257.75418137 81.94471864 257.75418137 81.94471864 254.75952148 82.18530273 C254.75952148 81.52530273 254.75952148 80.86530273 254.75952148 80.18530273 C252.18758925 78.49365425 249.62306224 76.9488056 246.94702148 75.43530273 C246.10606934 74.95577148 245.26511719 74.47624023 244.39868164 73.98217773 C219.77217002 60.08461782 194.43867907 47.63243953 167.75952148 38.18530273 C166.32834761 37.66888611 164.89736456 37.15194037 163.46655273 36.63452148 C162.00200262 36.10896291 160.53716538 35.58420367 159.07202148 35.06030273 C158.43135742 34.83044678 157.79069336 34.60059082 157.13061523 34.36376953 C116.97584503 20.19772297 75.08632543 13.2155897 32.75952148 10.18530273 C31.58397705 10.09031494 30.40843262 9.99532715 29.19726562 9.89746094 C20.73061763 9.23011847 12.31401064 8.99196157 3.82202148 8.99780273 C2.80096313 8.9982106 2.80096313 8.9982106 1.75927734 8.99862671 C-68.39802123 9.1253999 -137.57187274 24.83612584 -201.24047852 54.18530273 Z " fill="#040404" transform="translate(534.240478515625,59.814697265625)"/>
<path d="M0 0 C3.30696226 1.01046069 4.24469556 3.15246299 5.94140625 6.05859375 C10.29513221 14.80503427 13.04250153 23.53441173 15.51757812 32.98046875 C17.58225741 40.45489125 19.87596888 46.5565619 26.5 51.125 C32.05727064 53.83846477 36.81155894 53.49597724 42.54194641 51.59603882 C43.80294547 51.12040981 45.06136715 50.63791145 46.31762695 50.14990234 C47.01162503 49.88480551 47.70562311 49.61970867 48.42065144 49.3465786 C56.49430931 46.24368139 64.51354471 43.00234003 72.53050804 39.75645828 C76.25817878 38.24825419 79.98861541 36.74694699 83.71885395 35.24510765 C90.62677222 32.46377031 97.5334696 29.67947873 104.43579102 26.88427734 C109.2752715 24.92476076 114.11806088 22.97363827 118.96315956 21.0280571 C120.79962463 20.28877861 122.63483544 19.54637626 124.46874046 18.80076981 C127.02055123 17.76367632 129.57643998 16.73733541 132.13354492 15.71337891 C132.8852446 15.40488007 133.63694427 15.09638123 134.41142273 14.77853394 C138.14478415 13.29678686 141.21458257 12.30452237 145.25 12.6875 C146.24 15.1625 146.24 15.1625 147.25 17.6875 C141.37215608 20.7288889 135.43033813 23.31482217 129.27319336 25.73413086 C128.30791214 26.11682632 127.34263092 26.49952179 126.34809875 26.89381409 C124.26549198 27.71916344 122.18228013 28.54298734 120.09852409 29.36543083 C116.79680421 30.66934086 113.49729289 31.97869501 110.19837952 33.28968811 C100.82325646 37.01476735 91.44568365 40.73359976 82.06323242 44.44018555 C76.31250218 46.71248884 70.5655335 48.99408525 64.82083321 51.2815876 C62.63702886 52.14904915 60.45182082 53.01298583 58.26518059 53.87327385 C55.20570689 55.07726939 52.15115543 56.29303181 49.09741211 57.51147461 C47.75140427 58.03612808 47.75140427 58.03612808 46.37820435 58.57138062 C40.11660267 61.08995557 34.30379548 63.77243545 30.3125 69.4375 C27.26261605 78.7665568 30.58478596 86.89284776 33.6875 95.75 C34.16955613 97.15378733 34.65081389 98.55784902 35.13134766 99.9621582 C36.20709512 103.0937199 37.29386458 106.22121919 38.38720703 109.34667969 C39.72344049 113.16868384 41.04515247 116.99539913 42.35888672 120.82519531 C44.22484733 126.26436295 46.10570852 131.69817159 47.99685669 137.12863159 C48.74619926 139.2849552 49.49173369 141.44260611 50.23336792 143.60159302 C51.28610063 146.65957306 52.35571335 149.71114426 53.4296875 152.76171875 C53.89646156 154.13319565 53.89646156 154.13319565 54.37266541 155.53237915 C56.62631514 161.85474952 59.24429396 166.09466567 64.3828125 170.52734375 C68.86576102 172.34128886 73.33218984 172.18352113 78.125 172.25 C92.93085557 172.51615053 104.6294319 177.65956932 117.65625 184.453125 C122.22624136 186.62800041 126.17280795 187.14082072 131.25 186.6875 C133.93062419 184.78284597 135.00886055 183.53362838 135.91015625 180.37109375 C136.28273505 177.42900601 135.957863 175.32265224 135.3125 172.4375 C134.29330844 167.39626389 134.08168864 162.82099658 134.25 157.6875 C135.68429001 157.01395501 137.12257057 156.34890299 138.5625 155.6875 C139.36300781 155.31625 140.16351562 154.945 140.98828125 154.5625 C143.25 153.6875 143.25 153.6875 146.25 153.6875 C147.9 167.8775 149.55 182.0675 151.25 196.6875 C137.75563029 195.56296919 137.75563029 195.56296919 131.80419922 194.56420898 C131.15526703 194.45677368 130.50633484 194.34933838 129.83773804 194.23864746 C128.45600349 194.00937236 127.07461551 193.77799961 125.69356918 193.54461479 C123.49795139 193.17401728 121.30130128 192.81018377 119.10427856 192.44801331 C112.86728023 191.41872353 106.63220611 190.3780321 100.39794922 189.33227539 C96.55970048 188.68890696 92.72020559 188.05345039 88.87988663 187.42256355 C87.43068993 187.18282896 85.9819883 186.94007924 84.53384018 186.69408989 C69.17442252 183.54143204 69.17442252 183.54143204 54.8125 188 C53.82378906 188.61488281 52.83507812 189.22976563 51.81640625 189.86328125 C47.08209466 193.22846164 45.15987175 196.63591715 42.87890625 201.94140625 C42.56019058 202.6664888 42.24147491 203.39157135 41.9131012 204.1386261 C40.87343817 206.50645114 39.84309249 208.87821491 38.8125 211.25 C37.37714434 214.5262573 35.93678715 217.80030576 34.49609375 221.07421875 C34.13713013 221.8915448 33.7781665 222.70887085 33.4083252 223.55096436 C29.68769992 232.00472607 25.8103831 240.38168911 21.88110352 248.74047852 C16.72309529 259.23568722 16.72309529 259.23568722 16.25 270.6875 C18.57652313 276.86631258 22.46132539 281.15066704 27.17578125 285.640625 C29.37148572 287.80738421 31.35860002 290.05070002 33.3125 292.4375 C33.90160156 293.15421875 34.49070312 293.8709375 35.09765625 294.609375 C36.25 296.6875 36.25 296.6875 35.93359375 298.953125 C35.70800781 299.52546875 35.48242188 300.0978125 35.25 300.6875 C33.0390625 301.4296875 33.0390625 301.4296875 30.25 301.6875 C27.9609375 300.1328125 27.9609375 300.1328125 25.625 297.8125 C22.10362866 294.43741708 18.55644826 291.23912849 14.75 288.1875 C12.91573302 286.68864184 11.08241048 285.18862723 9.25 283.6875 C8.27546875 282.89859375 7.3009375 282.1096875 6.296875 281.296875 C5.37390625 280.51828125 4.4509375 279.7396875 3.5 278.9375 C2.65953125 278.24140625 1.8190625 277.5453125 0.953125 276.828125 C-0.75 274.6875 -0.75 274.6875 -0.54345703 272.53076172 C0.46217907 268.92718077 1.81700436 265.50727332 3.2421875 262.0546875 C3.54431656 261.3131543 3.84644562 260.57162109 4.1577301 259.80761719 C4.80651919 258.21680929 5.45728254 256.6268054 6.10983276 255.03753662 C7.13242 252.54440961 8.147307 250.04826798 9.16040039 247.55126953 C12.01765915 240.51988074 14.88566964 233.49493742 17.87854004 226.51998901 C18.67009682 224.67467746 19.45357117 222.82590549 20.23681641 220.97705078 C21.17432648 218.77038369 22.12740635 216.57023805 23.09912109 214.37841797 C25.90659583 207.73208527 27.19294761 201.91727525 26.25 194.6875 C23.61137516 188.72191341 18.37799222 185.44966335 13.25 181.6875 C11.61967833 180.4654006 9.99449197 179.23641475 8.375 178 C7.65570313 177.45988281 6.93640625 176.91976562 6.1953125 176.36328125 C2.43242967 173.12176171 1.0120734 170.56648015 0.25 165.6875 C0.15315281 163.69575186 0.10477946 161.70133756 0.09228516 159.70727539 C0.08202301 158.52577408 0.07176086 157.34427277 0.06118774 156.12696838 C0.05388641 154.85917038 0.04658508 153.59137238 0.0390625 152.28515625 C0.01818159 150.28285832 -0.00271673 148.2805604 -0.02463722 146.27827358 C-0.07767437 141.35233077 -0.12203057 136.4263863 -0.15136719 131.50024414 C-0.16828986 128.73223435 -0.19300193 125.96450207 -0.22622681 123.19664001 C-0.25715156 120.59353358 -0.27660459 117.99025968 -0.28329468 115.38697815 C-0.29986115 114.20232468 -0.31642761 113.0176712 -0.33349609 111.79711914 C-0.34158295 110.75963028 -0.3496698 109.72214142 -0.35800171 108.6532135 C-0.97883853 103.95619266 -2.70127099 100.68103274 -6.125 97.4375 C-11.61465159 93.77773227 -16.23910315 92.9911474 -22.75 93.6875 C-31.19283919 96.32588725 -37.33885517 105.07105127 -42.9375 111.58984375 C-45.00850341 113.98667312 -47.12603218 116.33750182 -49.25 118.6875 C-51.92048344 121.64619751 -54.57298058 124.61676472 -57.1875 127.625 C-60.01712212 130.87577518 -62.90695696 134.06691255 -65.8125 137.25 C-69.53782178 141.33363518 -73.18387881 145.46446174 -76.75 149.6875 C-79.4135969 149.32755447 -81.33183452 148.97588998 -83.5625 147.4375 C-85.19538513 145.03114297 -85.03864178 143.55549389 -84.75 140.6875 C-83.48413086 138.77807617 -83.48413086 138.77807617 -81.71484375 136.98046875 C-81.06966797 136.31080078 -80.42449219 135.64113281 -79.75976562 134.95117188 C-79.07591797 134.26603516 -78.39207031 133.58089844 -77.6875 132.875 C-76.36194573 131.51562393 -75.03772314 130.15494802 -73.71484375 128.79296875 C-73.1230835 128.19637451 -72.53132324 127.59978027 -71.92163086 126.98510742 C-70.04727655 125.0020216 -68.26260793 122.97866062 -66.48071289 120.91333008 C-62.85552981 116.7495666 -59.02061021 112.84651552 -55.09375 108.96875 C-54.0348053 107.91548523 -54.0348053 107.91548523 -52.95446777 106.84094238 C-49.97102625 103.87366234 -46.9815929 100.91244637 -43.99267578 97.95068359 C-41.79509421 95.77131535 -39.60062062 93.58885053 -37.40625 91.40625 C-36.74250366 90.750802 -36.07875732 90.095354 -35.39489746 89.42004395 C-31.5332681 85.57842176 -27.8925719 81.61333397 -24.33422852 77.48989868 C-22.33133899 75.21118359 -20.20528408 73.09495395 -18.015625 70.99609375 C-17.19449219 70.19623047 -16.37335938 69.39636719 -15.52734375 68.57226562 C-13.83242195 66.93104691 -12.13181569 65.29567978 -10.42578125 63.66601562 C-4.63386184 57.99762056 -1.22891683 53.99775151 -0.3125 45.75 C-0.73548915 37.2576794 -6.41593789 31.37826989 -11.7265625 25.203125 C-15.31160664 20.7460431 -16.22764872 17.59725916 -16.05078125 11.9375 C-15.55215061 8.20748376 -14.3666184 6.36793836 -11.75 3.6875 C-7.97081906 1.82611237 -4.06139502 1.01534876 0 0 Z " fill="#5A9975" transform="translate(501.75,398.3125)"/>
<path d="M0 0 C11.79886281 8.79976069 19.25171424 18.20483253 21.50390625 32.9765625 C22.18836683 42.47848579 19.03113207 52.63892412 14.56640625 60.9140625 C13.90640625 60.9140625 13.24640625 60.9140625 12.56640625 60.9140625 C12.42912109 62.00267578 12.42912109 62.00267578 12.2890625 63.11328125 C10.94937227 68.3054861 7.02390504 71.94006565 3.56640625 75.9140625 C2.66728516 76.99300781 2.66728516 76.99300781 1.75 78.09375 C-4.91861232 85.49691789 -15.2034859 91.29375789 -25.2109375 92.15234375 C-41.56618831 92.53645965 -54.32759413 86.37306529 -66.10546875 75.3359375 C-74.38541942 66.722566 -78.48250035 58.52652254 -78.87109375 46.6015625 C-78.50588838 30.70718971 -70.63365033 17.64312164 -60.43359375 5.9140625 C-59.91410156 5.27597656 -59.39460937 4.63789063 -58.859375 3.98046875 C-43.45627027 -13.44017111 -18.0445187 -12.34486723 0 0 Z " fill="#599875" transform="translate(773.43359375,185.0859375)"/>
<path d="M0 0 C11.76401751 4.38065687 17.33741983 18.25282711 22.734375 28.70703125 C23.4751082 30.12277376 24.21657079 31.53813488 24.95874023 32.953125 C30.93297505 44.37643559 36.75417765 55.87854825 42.421875 67.45703125 C43.16411877 64.07803347 43.59045323 60.84910375 43.74731445 57.39477539 C43.79439041 56.4134816 43.84146637 55.43218781 43.88996887 54.42115784 C43.96183662 52.84756752 43.96183662 52.84756752 44.03515625 51.2421875 C44.14950039 49.00711574 44.26476307 46.77209081 44.38085938 44.53710938 C44.56050086 41.02414764 44.73474665 37.51129498 44.89331055 33.99731445 C45.04884325 30.59869856 45.22755843 27.20194284 45.41015625 23.8046875 C45.45199539 22.75765152 45.49383453 21.71061554 45.53694153 20.6318512 C45.8809803 14.64082067 46.52182544 11.0762906 50.421875 6.45703125 C51.22625 5.48765625 52.030625 4.51828125 52.859375 3.51953125 C55.421875 1.45703125 55.421875 1.45703125 57.859375 1.20703125 C62.16432955 3.30700908 65.28908472 7.19145068 67.421875 11.45703125 C67.89488873 21.47272103 67.18592399 31.5271959 66.58203125 41.5234375 C66.4944896 43.0160118 66.40720952 44.50860147 66.32017517 46.00120544 C66.13868411 49.09805237 65.9543414 52.19471172 65.76782227 55.29125977 C65.52946445 59.25169028 65.29801949 63.21248974 65.0686121 67.17344761 C64.89018832 70.24225826 64.70835964 73.31085981 64.52548027 76.37940788 C64.43876795 77.84053599 64.3530569 79.30172389 64.26838875 80.76297188 C64.14988557 82.79864544 64.02634411 84.8340238 63.90258789 86.86938477 C63.83374893 88.02406754 63.76490997 89.17875031 63.69398499 90.36842346 C63.4484176 93.15575715 63.16801686 95.75971817 62.421875 98.45703125 C57.86277795 100.73657977 51.12511846 100.07449873 46.25 98.9609375 C35.35088847 94.69292259 28.59550817 81.56748803 23.421875 71.76953125 C22.88151611 70.76019531 22.34115723 69.75085938 21.78442383 68.7109375 C14.73017466 55.43046387 8.07418875 41.94201345 1.421875 28.45703125 C1.01204348 34.55438358 0.60315359 40.65179813 0.19506836 46.74926758 C0.05664385 48.81569041 -0.08202063 50.88209719 -0.22094727 52.94848633 C-0.42269834 55.94998873 -0.62363426 58.95154443 -0.82421875 61.953125 C-0.89007172 62.93485687 -0.95592468 63.91658875 -1.02377319 64.92807007 C-1.32536626 69.46682568 -1.6148957 74.00538786 -1.86376953 78.54736328 C-1.90663589 79.324673 -1.94950226 80.10198273 -1.9936676 80.90284729 C-2.10485339 82.9611672 -2.2109603 85.01975973 -2.31665039 87.07836914 C-2.53974252 89.96106938 -2.92923416 92.64449816 -3.578125 95.45703125 C-6.72393923 95.48591639 -9.86971969 95.50379048 -13.015625 95.51953125 C-13.91345703 95.52791016 -14.81128906 95.53628906 -15.73632812 95.54492188 C-17.01733398 95.54975586 -17.01733398 95.54975586 -18.32421875 95.5546875 C-19.11497803 95.55992432 -19.9057373 95.56516113 -20.72045898 95.57055664 C-22.578125 95.45703125 -22.578125 95.45703125 -23.578125 94.45703125 C-23.67617318 91.92987328 -23.7092039 89.4353298 -23.69091797 86.90820312 C-23.68770475 86.14277946 -23.68449154 85.3773558 -23.68118095 84.58873749 C-23.61999863 76.79147471 -23.23612211 69.02073314 -22.7734375 61.23828125 C-22.68833217 59.75957457 -22.60344743 58.28085517 -22.51876831 56.80212402 C-22.34219312 53.73994672 -22.16189642 50.67801716 -21.97900391 47.61621094 C-21.74648488 43.71583234 -21.52527524 39.81490188 -21.30699348 35.91370392 C-21.13539675 32.87460606 -20.9569648 29.83593742 -20.77660751 26.79734802 C-20.69220744 25.359138 -20.61006938 23.92079317 -20.5303688 22.48231506 C-20.1111379 14.97303643 -19.69801328 7.70006438 -17.578125 0.45703125 C-12.58902727 -2.03751762 -5.31884989 -1.12018202 0 0 Z " fill="#5A9875" transform="translate(534.578125,115.54296875)"/>
<path d="M0 0 C2.20392616 1.80557408 4.11489476 3.72564884 6.05078125 5.81640625 C6.73785156 6.55761719 7.42492187 7.29882812 8.1328125 8.0625 C14.95291175 15.93940743 20.31410206 24.77504685 25.72607422 33.6484375 C26.82199623 35.44198477 27.9359982 37.22447063 29.0546875 39.00390625 C37.14340834 52.2161092 44.46621685 67.67471182 48.05078125 82.81640625 C47.55578125 84.30140625 47.55578125 84.30140625 47.05078125 85.81640625 C44.64453125 86.73046875 44.64453125 86.73046875 41.55078125 87.44140625 C40.55046875 87.68117188 39.55015625 87.9209375 38.51953125 88.16796875 C34.39850371 88.93834102 30.21755408 89.35343149 26.05078125 89.81640625 C23.74078125 83.54640625 21.43078125 77.27640625 19.05078125 70.81640625 C10.38821815 72.20241635 1.78234669 73.8009966 -6.82495117 75.49511719 C-7.70256104 75.6655957 -8.5801709 75.83607422 -9.484375 76.01171875 C-10.27207275 76.16656738 -11.05977051 76.32141602 -11.87133789 76.48095703 C-13.94921875 76.81640625 -13.94921875 76.81640625 -16.94921875 76.81640625 C-16.80484375 77.91339844 -16.66046875 79.01039063 -16.51171875 80.140625 C-16.32405349 81.59503077 -16.13656269 83.04945906 -15.94921875 84.50390625 C-15.85382813 85.22513672 -15.7584375 85.94636719 -15.66015625 86.68945312 C-15.1823814 90.42633496 -14.83002081 94.03932156 -14.94921875 97.81640625 C-22.18158542 100.32173588 -28.21437444 101.96806986 -35.94921875 101.81640625 C-38.24197646 94.58993127 -38.34524033 87.80966138 -38.32421875 80.25390625 C-38.32400726 79.55543579 -38.32379578 78.85696533 -38.32357788 78.1373291 C-38.14926184 19.8810739 -38.14926184 19.8810739 -23.48706055 3.14770508 C-18.522363 -1.15019867 -5.77102261 -3.5042482 0 0 Z " fill="#599875" transform="translate(459.94921875,125.18359375)"/>
<path d="M0 0 C0.85207031 0.24105469 1.70414062 0.48210937 2.58203125 0.73046875 C8.24945033 3.08410456 10.92441136 6.54066414 13.5703125 11.95703125 C13.86628326 12.55468292 14.16225403 13.15233459 14.4671936 13.76809692 C15.42749315 15.71482811 16.37013375 17.66953348 17.3125 19.625 C17.97984467 20.98752606 18.64814925 22.34958236 19.31738281 23.71118164 C21.29093539 27.73688197 23.2412168 31.77356304 25.1875 35.8125 C25.7124707 36.89821289 26.23744141 37.98392578 26.77832031 39.10253906 C29.4848553 44.70723828 32.16408753 50.32444411 34.82861328 55.94921875 C37.33117153 61.22230591 39.85473983 66.48535711 42.375 71.75 C43.30607211 73.69657511 44.23706979 75.64318583 45.16796875 77.58984375 C45.55879639 78.40702881 45.94962402 79.22421387 46.35229492 80.06616211 C46.76572144 80.93059937 46.76572144 80.93059937 47.1875 81.8125 C44.06561723 85.31696645 40.9218034 87.19660046 36.6875 89.1875 C35.5634375 89.73148437 34.439375 90.27546875 33.28125 90.8359375 C30.1875 91.8125 30.1875 91.8125 28.16015625 91.16674805 C25.65432901 89.44647284 24.85504559 87.84872001 23.53125 85.12109375 C23.06589844 84.17556641 22.60054688 83.23003906 22.12109375 82.25585938 C21.64800781 81.26392578 21.17492187 80.27199219 20.6875 79.25 C19.97787109 77.80270508 19.97787109 77.80270508 19.25390625 76.32617188 C16.43532278 70.54456228 13.75359144 64.7102825 11.1875 58.8125 C6.7126617 60.19347659 2.65547526 61.96168679 -1.5234375 64.0703125 C-2.44293686 64.5321846 -2.44293686 64.5321846 -3.38101196 65.00338745 C-5.31843658 65.97765063 -7.2529876 66.95746917 -9.1875 67.9375 C-10.50892788 68.6032353 -11.83054076 69.26860353 -13.15234375 69.93359375 C-16.37454525 71.55565823 -19.59419593 73.18271374 -22.8125 74.8125 C-22.8125 78.69073751 -21.47149159 80.81456711 -19.71484375 84.2734375 C-19.07181144 85.5622735 -18.4292478 86.85134341 -17.78710938 88.140625 C-16.76989843 90.16669501 -15.74853398 92.19037445 -14.71850586 94.20996094 C-13.72571303 96.16266793 -12.75053996 98.12340704 -11.77734375 100.0859375 C-11.1855835 101.25560059 -10.59382324 102.42526367 -9.98413086 103.63037109 C-8.7380559 107.01468888 -8.493455 108.4835694 -9.8125 111.8125 C-12.12142105 113.35675897 -14.13049195 114.4893094 -16.625 115.625 C-17.56956055 116.09196289 -17.56956055 116.09196289 -18.53320312 116.56835938 C-21.92908265 118.18968695 -23.98254995 118.8125 -27.8125 118.8125 C-31.4061631 111.64872183 -34.99743638 104.48375218 -38.58595753 97.31739712 C-40.25372108 93.98700866 -41.92219711 90.65698187 -43.5925293 87.32788086 C-50.20683505 74.14367179 -56.80314597 60.95205229 -63.19921875 47.66015625 C-63.65698196 46.71401962 -64.11474518 45.767883 -64.58638 44.79307556 C-65.00090927 43.92558182 -65.41543854 43.05808807 -65.8425293 42.16430664 C-66.38093697 41.04095665 -66.38093697 41.04095665 -66.93022156 39.89491272 C-67.78381411 37.88020636 -68.34696915 35.94699824 -68.8125 33.8125 C-64.80939976 31.21474346 -60.76710625 28.69787103 -56.5625 26.4375 C-55.93859375 26.09976563 -55.3146875 25.76203125 -54.671875 25.4140625 C-52.8125 24.8125 -52.8125 24.8125 -50.81640625 24.76171875 C-47.5189212 26.49080935 -46.48860209 29.74948608 -45 33 C-44.30641117 34.45462818 -43.61239181 35.90905114 -42.91796875 37.36328125 C-42.57040527 38.10271973 -42.2228418 38.8421582 -41.86474609 39.60400391 C-40.8537073 41.72601248 -39.8067024 43.82435148 -38.73828125 45.91796875 C-38.41384033 46.55387939 -38.08939941 47.18979004 -37.75512695 47.8449707 C-37.44406006 48.45300537 -37.13299316 49.06104004 -36.8125 49.6875 C-33.8125 55.56696429 -33.8125 55.56696429 -33.8125 57.8125 C-16.23554533 49.46986474 -16.23554533 49.46986474 1.1875 40.8125 C0.13552994 37.18840536 -1.20889853 33.92488168 -2.9765625 30.60546875 C-3.37617188 29.85330078 -3.77578125 29.10113281 -4.1875 28.32617188 C-5.01771838 26.78118736 -5.85882518 25.2420024 -6.7109375 23.70898438 C-10.02484196 17.39857864 -10.80249087 12.19485957 -9.2265625 5.21875 C-6.83285455 -0.5640692 -6.01498397 -1.77653949 0 0 Z " fill="#599874" transform="translate(373.8125,146.1875)"/>
<path d="M0 0 C5.40338254 3.5294822 9.93131179 8.06740669 12.375 14.125 C12.58156929 19.53514816 11.418193 24.61656592 8.375 29.125 C5.03574126 30.50126716 2.8299896 29.96373453 -0.5 28.75 C-5.53101917 26.64141108 -7.68387483 23.95655591 -10.2734375 19.24609375 C-12.50128295 15.74979294 -14.97221664 14.3681938 -18.8125 12.9375 C-25.84702809 11.43833828 -31.42540633 11.28588239 -37.8359375 14.8359375 C-40.65816055 16.86941699 -42.50526346 19.38181154 -44.625 22.125 C-45.285 22.125 -45.945 22.125 -46.625 22.125 C-46.728125 22.82625 -46.83125 23.5275 -46.9375 24.25 C-47.625 27.125 -47.625 27.125 -49.0625 29.875 C-53.14527529 38.36717261 -53.57617104 47.82807015 -52.625 57.125 C-49.6397533 64.23393495 -45.40698841 68.03429669 -38.58984375 71.328125 C-33.84141822 73.2539278 -29.71213969 73.20978566 -24.625 73.125 C-24.34619995 72.24763184 -24.34619995 72.24763184 -24.06176758 71.35253906 C-23.20416175 68.687486 -22.32117605 66.03151681 -21.4375 63.375 C-21.14552734 62.45460938 -20.85355469 61.53421875 -20.55273438 60.5859375 C-18.80221483 55.39084725 -17.52118133 52.06895592 -12.625 49.125 C-11.635 48.526875 -10.645 47.92875 -9.625 47.3125 C-6.2139791 45.96230423 -5.03421682 45.90131559 -1.625 47.125 C-0.0078125 49.3828125 -0.0078125 49.3828125 1.25 52.25 C1.68054688 53.18070313 2.11109375 54.11140625 2.5546875 55.0703125 C4.66210831 62.91794619 0.51365866 71.51343064 -1.9375 78.9375 C-2.32873047 80.17693359 -2.71996094 81.41636719 -3.12304688 82.69335938 C-3.51169922 83.87349609 -3.90035156 85.05363281 -4.30078125 86.26953125 C-4.65052002 87.34565674 -5.00025879 88.42178223 -5.3605957 89.53051758 C-6.625 92.125 -6.625 92.125 -8.53491211 93.4699707 C-23.57112402 98.18228896 -41.82359416 92.15381276 -55.16601562 85.25756836 C-64.54096121 80.15366592 -71.77573263 73.40312857 -75.73828125 63.28125 C-80.41678776 46.62824003 -75.92167029 29.10441523 -68.0625 14.15234375 C-61.89153133 3.76740342 -53.8221599 -3.16234179 -42.37890625 -6.94921875 C-27.80825956 -10.54260404 -12.92924318 -7.18935495 0 0 Z " fill="#5A9975" transform="translate(688.625,142.875)"/>
<path d="M0 0 C7.17022327 0.24331617 10.78238979 3.81407826 15.49780273 8.8515625 C16.8068457 10.31335938 16.8068457 10.31335938 18.14233398 11.8046875 C19.55037395 13.22992865 20.966007 14.64774748 22.39233398 16.0546875 C22.97635986 16.64789795 23.56038574 17.2411084 24.16210938 17.85229492 C25.99739376 19.66178441 27.88126437 21.35084354 29.83764648 23.02734375 C55.95046107 45.75851268 55.95046107 45.75851268 58.20483398 61.4296875 C58.4826278 67.6038791 56.89438874 73.30057798 54.14233398 78.8046875 C53.48233398 78.8046875 52.82233398 78.8046875 52.14233398 78.8046875 C52.0765918 79.51109375 52.01084961 80.2175 51.94311523 80.9453125 C50.91371008 84.62104212 48.89754458 86.84912211 46.32983398 89.5546875 C45.84208496 90.07474365 45.35433594 90.5947998 44.85180664 91.13061523 C36.42727716 99.8756577 27.59873375 106.84993269 15.26733398 108.2421875 C-2.22870292 107.40738653 -15.57510646 91.24351852 -27.01391602 79.6171875 C-28.81824908 77.84343635 -30.68256539 76.19575688 -32.60766602 74.5546875 C-36.26442821 71.37965445 -39.80791197 68.10143103 -43.29516602 64.7421875 C-43.82787109 64.24750977 -44.36057617 63.75283203 -44.90942383 63.24316406 C-48.33558364 59.89249967 -49.58700272 57.57996137 -49.85766602 52.8046875 C-49.9130957 52.05703125 -49.96852539 51.309375 -50.02563477 50.5390625 C-50.04445549 48.62687695 -49.95316063 46.71457979 -49.85766602 44.8046875 C-47.0597625 42.00678398 -45.14232167 42.37195123 -41.23266602 42.2421875 C-36.26536092 42.31322149 -33.19780594 42.54405652 -29.42016602 45.8671875 C-28.20265991 47.15190201 -27.01407906 48.46471684 -25.85766602 49.8046875 C-24.69876824 50.97907166 -23.53218875 52.14593017 -22.35766602 53.3046875 C-21.78661133 53.88605469 -21.21555664 54.46742188 -20.62719727 55.06640625 C-18.8275612 56.83426066 -16.9616469 58.47723292 -15.04516602 60.1171875 C-11.86244221 62.85224495 -8.91527727 65.74073561 -5.98266602 68.7421875 C4.05814578 79.52511121 4.05814578 79.52511121 17.07202148 84.890625 C22.94659862 84.4694289 26.92800409 82.33897791 30.84545898 77.85546875 C34.16821316 73.40701515 36.18146746 69.60770121 35.69702148 63.96875 C32.81355945 52.71918687 17.65455499 41.76985493 9.07592773 34.51953125 C5.7351255 31.55667836 2.65258978 28.33297899 -0.46313477 25.13671875 C-2.83313363 22.74693131 -2.83313363 22.74693131 -5.57641602 20.6640625 C-8.61606265 18.1865423 -9.08793966 16.65331929 -9.85766602 12.8046875 C-10.05278722 9.12819332 -10.12678183 5.4784313 -9.85766602 1.8046875 C-7.54085015 -0.51212837 -3.10998357 0.0831606 0 0 Z " fill="#5A9975" transform="translate(244.857666015625,229.1953125)"/>
<path d="M0 0 C8.31744309 5.37828798 16.63081031 11.81671055 19.2890625 21.78515625 C19.65314427 27.49143784 19.95649669 33.25841874 18.2890625 38.78515625 C18.6190625 38.45515625 18.9490625 38.12515625 19.2890625 37.78515625 C33.0925244 29.15799256 48.12048211 28.20815293 63.9140625 31.16015625 C64.92605713 31.34916504 64.92605713 31.34916504 65.95849609 31.54199219 C69.33830554 32.2270079 72.30142024 33.04110112 75.2890625 34.78515625 C74.69853483 39.40361148 72.75345964 43.05161932 70.4765625 47.03515625 C70.13302734 47.67195313 69.78949219 48.30875 69.43554688 48.96484375 C66.86494925 53.49835551 66.86494925 53.49835551 64.3203125 54.765625 C61.93227391 54.78858691 59.92598973 54.40595667 57.6015625 53.84765625 C44.06207569 51.22302311 30.00362958 51.44872148 18.1640625 59.28515625 C15.67579897 61.44886367 14.31654454 62.70271012 13.2890625 65.78515625 C14.00980957 66.06061279 14.73055664 66.33606934 15.47314453 66.61987305 C20.22276221 68.58535988 24.65707562 71.13578165 29.1640625 73.59765625 C30.13214844 74.11908203 31.10023438 74.64050781 32.09765625 75.17773438 C37.43492733 78.08600249 42.4336656 81.1267026 47.2890625 84.78515625 C46.74113355 89.40341455 44.69941762 92.76665272 42.2265625 96.59765625 C41.84951172 97.19513672 41.47246094 97.79261719 41.08398438 98.40820312 C40.15916684 99.87152202 39.22504185 101.32895148 38.2890625 102.78515625 C32.27189252 102.34772063 28.03401572 99.61468376 22.9765625 96.59765625 C21.0918933 95.49611596 19.20644344 94.39591052 17.3203125 93.296875 C16.33417969 92.7198584 15.34804687 92.1428418 14.33203125 91.54833984 C10.27969702 89.20030087 6.19107623 86.92071222 2.09765625 84.64526367 C-2.10124175 82.3109733 -6.28940721 79.95781391 -10.4765625 77.60253906 C-12.68043019 76.36419433 -14.88624278 75.12930604 -17.09375 73.89746094 C-20.41195237 72.04098392 -23.71869707 70.16546991 -27.0234375 68.28515625 C-28.54481323 67.44041748 -28.54481323 67.44041748 -30.09692383 66.57861328 C-35.32648254 63.57686538 -39.12657242 61.33458609 -41.7109375 55.78515625 C-42.3203125 52.79296875 -42.3203125 52.79296875 -42.4609375 49.91015625 C-42.54601562 48.45996094 -42.54601562 48.45996094 -42.6328125 46.98046875 C-42.65859375 46.25601563 -42.684375 45.5315625 -42.7109375 44.78515625 C-37.1264237 42.37023137 -31.69007345 41.97067896 -25.7109375 42.78515625 C-21.76523155 44.36823168 -18.28700945 46.50058654 -14.7109375 48.78515625 C-12.88078343 49.91532093 -11.04758468 51.04057452 -9.2109375 52.16015625 C-8.416875 52.66289062 -7.6228125 53.165625 -6.8046875 53.68359375 C-4.66275031 55.01796141 -4.66275031 55.01796141 -1.7109375 54.78515625 C1.43403582 48.18632829 3.66464074 42.14570648 2.2890625 34.78515625 C-0.41045384 28.07219968 -5.86301387 22.57488817 -12.3984375 19.53515625 C-16.24429403 16.62477833 -17.42288172 12.32502499 -18.7109375 7.78515625 C-18.9609375 4.16015625 -18.9609375 4.16015625 -18.7109375 1.78515625 C-17.1727798 1.27446358 -15.63018461 0.77712878 -14.0859375 0.28515625 C-13.22742188 0.00671875 -12.36890625 -0.27171875 -11.484375 -0.55859375 C-7.21051126 -1.56987418 -4.06182428 -1.82021232 0 0 Z " fill="#599875" transform="translate(183.7109375,313.21484375)"/>
<path d="M0 0 C0.99 0.495 0.99 0.495 2 1 C2.05470352 2.70796558 2.09310718 4.41645625 2.125 6.125 C2.14820313 7.07632813 2.17140625 8.02765625 2.1953125 9.0078125 C1.79879565 15.08245071 0.02572143 18.45429506 -4.39086914 22.43774414 C-4.96313232 22.93266357 -5.53539551 23.42758301 -6.125 23.9375 C-6.71466553 24.46400146 -7.30433105 24.99050293 -7.91186523 25.53295898 C-9.59786059 27.03390889 -11.29620739 28.51931678 -13 30 C-13.73089844 30.64195312 -14.46179688 31.28390625 -15.21484375 31.9453125 C-16.44477588 33.02182815 -17.67785 34.09476477 -18.9140625 35.1640625 C-22.15320592 38.01499398 -25.32305916 40.9417531 -28.48828125 43.87426758 C-31.60946827 46.75868516 -34.805586 49.5182236 -38.0625 52.25 C-42.90512289 56.55747797 -44.43766586 59.96339564 -45.625 66.375 C-44.44723885 73.20601469 -39.60083739 78.17687829 -34.0625 82.125 C-30.72815939 83.9553674 -27.94855881 84.64581121 -24.109375 83.8125 C-14.44131889 80.08850802 -6.91905034 71.45138026 0.4609375 64.44628906 C2.8881202 62.16541496 5.4040731 59.99449779 7.9296875 57.82421875 C9.64901073 56.3092679 11.33242305 54.76986357 13.0078125 53.20703125 C13.5426123 52.70961426 14.07741211 52.21219727 14.62841797 51.69970703 C15.68576234 50.71368008 16.73965516 49.72393493 17.78955078 48.72998047 C22.85080284 44.01697201 25.6832431 42.71866024 32.625 42.75 C33.77226563 42.74484375 34.91953125 42.7396875 36.1015625 42.734375 C39 43 39 43 41 45 C41.265625 46.953125 41.265625 46.953125 41.25 49.25 C41.25773438 50.37148438 41.25773438 50.37148438 41.265625 51.515625 C40.63120877 57.44928267 38.65652169 60.84818284 34.375 64.9375 C33.47265625 65.80375 32.5703125 66.67 31.640625 67.5625 C28.86640393 70.12331945 26.06292839 72.63437509 23.1953125 75.08984375 C20.41576538 77.50834649 17.70900757 80.00329051 15 82.5 C13.00123316 84.33468433 11.00067923 86.16739951 9 88 C8.27554688 88.66515625 7.55109375 89.3303125 6.8046875 90.015625 C-3.4296327 99.21408283 -13.82109617 106.93180809 -28.11328125 106.3828125 C-39.87592707 104.82294878 -49.50631321 95.59688664 -57 87 C-59.57687501 83.45617382 -61.84037375 79.81007232 -64 76 C-64.639375 74.906875 -65.27875 73.81375 -65.9375 72.6875 C-68.10887039 65.15156747 -68.36536126 56.98429474 -65.0625 49.75 C-57.6686484 37.10424823 -45.07967225 27.32068667 -34.09375 17.84765625 C-31.87054084 15.88575712 -29.69884044 13.87250102 -27.52978516 11.85107422 C-25.96510761 10.4005927 -24.38797965 8.96527502 -22.8046875 7.53515625 C-21.22588573 6.10807777 -19.65826663 4.66756064 -18.1328125 3.18359375 C-12.93780905 -1.3523421 -6.46651368 -0.63308526 0 0 Z " fill="#5A9975" transform="translate(838,235)"/>
<path d="M0 0 C8.56330992 6.98401096 14.49164645 15.33462453 16.75 26.25 C17.55628978 36.47980164 15.45958931 45.63903431 9.75 54.25 C2.75828102 61.93968749 -5.19706061 67.77513322 -15.7890625 68.48828125 C-27.42746322 68.80606787 -35.92701759 66.969597 -45.14453125 59.3671875 C-49.0004489 55.48980834 -51.66629165 51.03931303 -54.25 46.25 C-54.61222656 45.61578125 -54.97445312 44.9815625 -55.34765625 44.328125 C-58.79174095 37.08753763 -58.39537074 26.83148295 -56.48828125 19.203125 C-51.84210726 7.08267111 -44.47349293 1.06837767 -33.1171875 -4.55078125 C-21.84467469 -9.26557884 -9.82330342 -6.94078967 0 0 Z " fill="#FEFEFE" transform="translate(760.25,859.75)"/>
<path d="M0 0 C8.8531992 6.09073479 14.27637596 14.86430911 16.36328125 25.375 C17.67239265 35.93817474 15.66776434 45.73448932 9.828125 54.6796875 C4.3129702 61.68110897 -3.25590503 67.08184342 -12.171875 68.6796875 C-21.56129879 69.31186725 -29.72755452 69.34756523 -38.171875 64.6796875 C-39.22375 64.1021875 -40.275625 63.5246875 -41.359375 62.9296875 C-50.12670964 55.91581979 -55.2298431 47.6981932 -56.9140625 36.59765625 C-57.90716961 25.35748943 -55.11872389 15.83212842 -49.046875 6.3671875 C-35.28160988 -6.50034293 -16.39303605 -9.9655507 0 0 Z " fill="#FEFEFE" transform="translate(630.171875,908.3203125)"/>
<path d="M0 0 C1.75517456 0.37221805 3.50411808 0.77388138 5.25 1.1875 C6.71179688 1.51814453 6.71179688 1.51814453 8.203125 1.85546875 C14.94507161 4.61439383 17.7041069 12.76147842 20.9375 18.875 C26.11385294 28.55657316 31.42580885 38.14852012 36.86108398 47.68701172 C37.37485596 48.5895166 37.88862793 49.49202148 38.41796875 50.421875 C39.09508911 51.60668457 39.09508911 51.60668457 39.78588867 52.81542969 C40.18654541 53.53633789 40.58720215 54.25724609 41 55 C41.37809814 55.67450195 41.75619629 56.34900391 42.14575195 57.04394531 C44.06778613 61.44501356 43.27117498 66.05088757 42 70.5 C41.67 71.325 41.34 72.15 41 73 C34.99711863 72.73320527 30.62216998 72.19220068 26 68 C23.66780345 64.39635673 22 61.33493745 22 57 C21.34 57 20.68 57 20 57 C19.01 54.03 19.01 54.03 18 51 C14.18705334 53.06167503 10.37472549 55.12449181 6.5625 57.1875 C5.49322266 57.76564453 4.42394531 58.34378906 3.32226562 58.93945312 C1.74155273 59.79506836 1.74155273 59.79506836 0.12890625 60.66796875 C-0.90991699 61.22919434 -1.94874023 61.79041992 -3.01904297 62.36865234 C-6.43810479 64.23975563 -9.8170934 66.17552066 -13.17993164 68.14575195 C-15 69 -15 69 -18 69 C-18 69.66 -18 70.32 -18 71 C-22.17107106 73.31531566 -26.35186695 75.61156312 -30.54272461 77.89086914 C-31.96644298 78.6686067 -33.38738457 79.45145026 -34.80541992 80.23950195 C-36.84623138 81.37249185 -38.89637947 82.48664241 -40.94921875 83.59765625 C-41.5796257 83.952798 -42.21003265 84.30793976 -42.85954285 84.67384338 C-45.64732746 86.1619481 -47.6107699 87.01371796 -50.79858398 86.90136719 C-54.34100165 85.45092846 -55.64519703 82.41063475 -57.375 79.1875 C-57.74238281 78.55779297 -58.10976563 77.92808594 -58.48828125 77.27929688 C-61.00794574 72.74865488 -61.00794574 72.74865488 -60.97900391 70.02172852 C-59.42617548 66.81500229 -56.90467512 65.90143833 -53.8125 64.234375 C-53.184646 63.89065857 -52.55679199 63.54694214 -51.90991211 63.19281006 C-50.59453962 62.47370421 -49.2761929 61.76001474 -47.95507812 61.05151367 C-46.12251789 60.06589467 -44.30148453 59.06259209 -42.484375 58.04882812 C-38.99624419 56.10367755 -35.49920843 54.1751067 -32 52.25 C-30.7451764 51.55863397 -29.49037532 50.86722709 -28.2355957 50.17578125 C-17.17514193 44.08409315 -6.09384302 38.03065962 5 32 C5 27.48508113 2.24557888 24.22926074 -0.15625 20.53320312 C-3.0484226 15.78694131 -3.50321031 12.5524683 -3 7 C-2.26651838 4.41535047 -1.21133372 2.42266744 0 0 Z " fill="#5B9976" transform="translate(888,309)"/>
<path d="M0 0 C0.77214844 0.0825 1.54429687 0.165 2.33984375 0.25 C13.84954877 1.99554768 24.40606715 8.02709765 31.6796875 17.09375 C39.9624117 28.7967036 43.58635474 42.57927779 41.375 56.75 C38.6097754 69.25111953 31.36891807 79.47497477 21 86.8125 C9.25079206 93.82938807 -4.78133751 95.69323905 -18.0625 92.875 C-30.92429639 89.29765689 -40.24750553 81.02258532 -46.75 69.51953125 C-52.79196516 57.34119523 -53.70070195 43.94238462 -50.03515625 30.8828125 C-46.05288284 19.79255674 -38.18098932 11.09504187 -27.97265625 5.3203125 C-19.45201702 1.53584987 -9.33052239 -1.13311847 0 0 Z M-34 22 C-41.12983452 32.84974818 -43.14712932 43.27169383 -41 56 C-37.97862169 66.42447115 -32.21393795 74.66118225 -22.84375 80.296875 C-13.30208112 85.21012241 -1.38657579 85.79218051 8.875 82.5625 C18.95689586 78.2655474 25.96238629 69.98651154 30.25 60.125 C33.18313 47.90362501 31.81648954 36.89001949 25.83203125 25.765625 C20.89932905 18.319243 13.68612737 13.198993 5.2421875 10.421875 C-9.40624031 7.66572482 -23.6535984 10.85632752 -34 22 Z " fill="#5D9B78" transform="translate(615,893)"/>
<path d="M0 0 C1.36586971 1.00512088 2.72138975 2.02457353 4.0625 3.0625 C5.09375 3.784375 6.125 4.50625 7.1875 5.25 C16.7395419 13.49828131 21.12231586 26.9315362 22.25390625 39.125 C22.49822478 47.20379937 20.52662983 54.81931944 17.0625 62.0625 C16.4025 62.0625 15.7425 62.0625 15.0625 62.0625 C14.95679688 62.80757812 14.85109375 63.55265625 14.7421875 64.3203125 C12.85249807 71.94423191 5.33967621 76.68159906 -1.01953125 80.5234375 C-5.49438559 82.88366857 -10.09962439 84.60408045 -14.9375 86.0625 C-15.89849609 86.35253906 -15.89849609 86.35253906 -16.87890625 86.6484375 C-28.85850026 89.05799531 -41.48422879 86.39940927 -51.625 79.78515625 C-62.19675433 71.90991358 -69.13904795 60.96716584 -71.9375 48.0625 C-72.77205201 31.72453949 -71.07780068 20.92332787 -60.27734375 8.08984375 C-44.88301165 -8.46907139 -19.12731383 -12.37837868 0 0 Z M-53.8125 14.3125 C-61.37123589 24.0943935 -62.98500721 35.09270409 -61.9375 47.0625 C-59.78229805 57.22077672 -52.89344547 66.49776773 -44.3125 72.125 C-34.99561505 77.71239875 -24.55544643 78.74752921 -13.98828125 76.41015625 C-2.61641609 72.25058862 4.88825331 64.16833129 10.0234375 53.47265625 C11.26833417 50.58505757 11.86595398 48.20723628 12.0625 45.0625 C12.124375 44.33675781 12.18625 43.61101563 12.25 42.86328125 C12.77627673 32.38708508 8.64318019 23.08365166 2.0625 15.0625 C-2.64725569 10.12800494 -7.65898301 6.68734219 -13.9375 4.0625 C-14.88625 3.65 -15.835 3.2375 -16.8125 2.8125 C-31.16045466 -0.63100912 -42.74574941 5.65156475 -53.8125 14.3125 Z " fill="#5D9A78" transform="translate(764.9375,850.9375)"/>
<path d="M0 0 C5.36100154 3.73693343 10.16996835 7.42337477 11.75 14 C12.97146285 25.67574779 7.02918101 36.2937268 0.1875 45.375 C-5.32624002 51.94501205 -12.61814781 57.50168035 -21.375 58.3125 C-28.09131104 57.73350767 -34.07689139 54.5566241 -39 50 C-41.44206787 46.7168574 -43.5028533 43.10146025 -44 39 C-44.2165625 37.329375 -44.2165625 37.329375 -44.4375 35.625 C-44.22781774 24.34409424 -36.20268062 13.03282008 -29 5 C-20.50038095 -2.8293982 -10.6692544 -6.06910486 0 0 Z " fill="#FEFEFE" transform="translate(761,199)"/>
<path d="M0 0 C1.38167358 0.00241699 1.38167358 0.00241699 2.79125977 0.00488281 C12.57966406 0.17981356 22.08653304 1.9366942 29.8125 8.375 C30.3075 9.365 30.3075 9.365 30.8125 10.375 C29.1625 12.685 27.5125 14.995 25.8125 17.375 C25.11125 17.03726563 24.41 16.69953125 23.6875 16.3515625 C11.33958801 10.5467017 -1.69753326 7.60090495 -15.125 11.875 C-23.70231619 15.56389087 -29.5268482 21.44404659 -33.2578125 29.9609375 C-37.0221526 39.73556851 -38.28607815 51.8523688 -34.5625 61.875 C-33.47075253 64.20566775 -33.47075253 64.20566775 -32.1875 66.375 C-31.775 67.09171875 -31.3625 67.8084375 -30.9375 68.546875 C-25.73039976 76.41669695 -17.47936006 80.71979083 -8.45703125 82.9140625 C0.59348504 84.19000148 9.82623288 83.87271119 18.8125 82.375 C19.4725 73.795 20.1325 65.215 20.8125 56.375 C13.8825 56.045 6.9525 55.715 -0.1875 55.375 C-0.1875 52.405 -0.1875 49.435 -0.1875 46.375 C10.08060377 46.18287332 20.75710627 46.10011054 30.8125 48.375 C30.75191406 49.51453125 30.69132813 50.6540625 30.62890625 51.828125 C30.00107879 63.67599974 29.39937945 75.52502983 28.8125 87.375 C15.17454583 94.48536851 -0.63169353 95.7380423 -15.48828125 91.33984375 C-27.40888005 87.07879034 -36.50906668 80.17135102 -42.93359375 69.125 C-46.31277173 61.71396793 -47.71993039 55.21679609 -47.625 47.0625 C-47.61670166 46.14041748 -47.60840332 45.21833496 -47.59985352 44.26831055 C-47.28361921 31.47151254 -43.09024989 21.72262566 -34.30859375 12.375 C-24.5520772 3.22949762 -13.10025739 -0.0239034 0 0 Z " fill="#5D9B78" transform="translate(515.1875,899.625)"/>
<path d="M0 0 C3.0600022 1.20331047 4.68901502 3.10982754 6.9453125 5.48828125 C9.79805659 8.47906135 12.65975161 11.30074697 15.796875 13.9921875 C20.82821081 18.34841469 25.57364285 22.98374257 30.29589844 27.66870117 C31.31130995 28.67256652 32.33117937 29.67194282 33.35546875 30.66674805 C42.7716768 39.81353454 51.5108262 49.79741934 52.359375 63.515625 C52.0003869 73.13926757 47.44339396 82.34909061 40.87890625 89.33984375 C33.79971874 95.74560507 26.1854933 99.22147616 16.6953125 100.23828125 C-0.58043526 98.38730828 -10.92699241 87.2588729 -22.4296875 75.42578125 C-24.4885491 73.32406706 -26.55036222 71.22533497 -28.61483765 69.12913513 C-29.88986167 67.8328263 -31.16132968 66.53300538 -32.42837524 65.22889709 C-36.13891564 61.43637425 -39.98209106 57.88069177 -44.01522827 54.43247986 C-45.68387401 52.96922407 -47.25522071 51.45118694 -48.8046875 49.86328125 C-47.36215093 46.49736259 -45.47204023 44.35281046 -42.8046875 41.86328125 C-39.57195564 43.28221571 -37.44294218 44.98961734 -34.97338867 47.49926758 C-34.23549606 48.24376663 -33.49760345 48.98826569 -32.73735046 49.75532532 C-31.94875137 50.56052109 -31.16015228 51.36571686 -30.34765625 52.1953125 C-29.52646805 53.02407394 -28.70527985 53.85283539 -27.85920715 54.70671082 C-24.34802539 58.25055376 -20.84868013 61.80600108 -17.34838867 65.3605957 C-14.78980035 67.95547944 -12.22514166 70.54425442 -9.66015625 73.1328125 C-8.48636665 74.33149712 -8.48636665 74.33149712 -7.28886414 75.55439758 C2.49140926 85.42357704 2.49140926 85.42357704 15.4453125 89.23828125 C22.98654681 89.03784977 29.24521357 85.55148234 34.69140625 80.484375 C39.76570718 75.014674 41.44743794 69.31244206 41.1953125 61.86328125 C39.8633107 52.78708292 33.65576163 45.76092962 26.86328125 39.9921875 C19.93980156 34.03359373 13.62924718 27.40121003 7.1953125 20.92578125 C5.83486932 19.5603138 4.47419419 18.19507739 3.11328125 16.83007812 C-0.1953906 13.51047239 -3.50090072 10.18774852 -6.8046875 6.86328125 C-3.35643042 -0.25427503 -3.35643042 -0.25427503 0 0 Z " fill="#5E9B79" transform="translate(810.8046875,774.13671875)"/>
<path d="M0 0 C3.62822218 1.68527605 5.62620613 3.5764913 8.25 6.625 C11.12013139 9.89977286 14.01572983 13.07622147 17.125 16.125 C20.32837618 19.27772992 23.28032218 22.57283675 26.19921875 25.98828125 C28.7466414 28.83410048 31.50948318 31.43812281 34.30078125 34.04296875 C36.20641965 36.23773849 37.0690673 38.26390845 38 41 C35.75 43.0625 35.75 43.0625 33 45 C30.38394216 44.79237636 29.26257422 44.25069586 27.359375 42.43359375 C26.56273437 41.44552734 26.56273437 41.44552734 25.75 40.4375 C23.28082896 37.47766036 20.75512466 34.69639138 18 32 C14.69439937 28.74554986 11.63285651 25.34786869 8.609375 21.83203125 C6.50760458 19.43948191 4.28559058 17.21633026 2 15 C-1.15737088 16.40317869 -3.34665518 18.07553091 -5.8203125 20.4765625 C-6.52027344 21.146875 -7.22023437 21.8171875 -7.94140625 22.5078125 C-9.40506666 23.92696088 -10.86860706 25.34623304 -12.33203125 26.765625 C-13.02941406 27.43335938 -13.72679687 28.10109375 -14.4453125 28.7890625 C-15.07969238 29.40475098 -15.71407227 30.02043945 -16.36767578 30.65478516 C-18 32 -18 32 -20 32 C-16.61790017 35.9577764 -13.21642354 39.85099458 -9.5 43.5 C-6.3701061 46.57375231 -3.49507268 49.81233564 -0.6484375 53.1484375 C0.82588923 54.80443482 2.35490907 56.26850927 4 57.75 C6 60 6 60 6 62.125 C4.85961904 64.2632143 3.99251319 65.59786109 2 67 C-1.47070111 66.59191885 -3.03819986 65.28698756 -5.35546875 62.75390625 C-5.97413818 62.08552734 -6.59280762 61.41714844 -7.23022461 60.72851562 C-7.87612549 60.01373047 -8.52202637 59.29894531 -9.1875 58.5625 C-9.85080322 57.84126953 -10.51410645 57.12003906 -11.19750977 56.37695312 C-13.14075738 54.25936911 -15.07215927 52.13160877 -17 50 C-17.52013672 49.42749512 -18.04027344 48.85499023 -18.57617188 48.26513672 C-21.06629115 45.52376061 -23.54243145 42.77059218 -26 40 C-31.48561029 44.61869445 -36.73323542 49.44276639 -41.9375 54.375 C-42.71673828 55.11105469 -43.49597656 55.84710937 -44.29882812 56.60546875 C-46.20057987 58.4022158 -48.10093488 60.20041429 -50 62 C-46.36573197 66.27994221 -42.67969361 70.49452223 -38.875 74.625 C-38.41706055 75.12644531 -37.95912109 75.62789062 -37.48730469 76.14453125 C-34.89331863 78.97815055 -32.26428018 81.76930696 -29.5859375 84.5234375 C-29.02922363 85.10399902 -28.47250977 85.68456055 -27.89892578 86.28271484 C-26.81638064 87.41013897 -25.72383252 88.52805961 -24.62060547 89.63525391 C-20.98944976 93.44371448 -20.98944976 93.44371448 -21.04296875 96.265625 C-22.29082235 98.52704131 -23.85031096 99.61310384 -26 101 C-29.08865342 99.63578505 -31.07849356 98.1229872 -33.36328125 95.6484375 C-33.99596924 94.9692627 -34.62865723 94.29008789 -35.28051758 93.59033203 C-35.95107178 92.85927246 -36.62162598 92.12821289 -37.3125 91.375 C-38.00947998 90.62460449 -38.70645996 89.87420898 -39.42456055 89.10107422 C-40.88412421 87.52964079 -42.34152617 85.95619707 -43.796875 84.38085938 C-47.28423401 80.612162 -50.79918066 76.86947589 -54.3125 73.125 C-54.94003174 72.45388184 -55.56756348 71.78276367 -56.21411133 71.09130859 C-56.7995874 70.46562988 -57.38506348 69.83995117 -57.98828125 69.1953125 C-58.49915283 68.64891113 -59.01002441 68.10250977 -59.53637695 67.53955078 C-60.98833665 65.95123569 -60.98833665 65.95123569 -62.75073242 64.55029297 C-64 63 -64 63 -63.86352539 60.99536133 C-62.90575419 58.78222475 -61.96794362 57.68319441 -60.18359375 56.07421875 C-59.59263916 55.53289307 -59.00168457 54.99156738 -58.39282227 54.43383789 C-57.74756592 53.85754639 -57.10230957 53.28125488 -56.4375 52.6875 C-55.0595302 51.43008807 -53.68193826 50.17226196 -52.3046875 48.9140625 C-51.59151367 48.26727539 -50.87833984 47.62048828 -50.14355469 46.95410156 C-46.74918262 43.85973323 -43.40718338 40.71036433 -40.0625 37.5625 C-38.72026156 36.30316212 -37.3778125 35.04404867 -36.03515625 33.78515625 C-35.36887207 33.16012207 -34.70258789 32.53508789 -34.01611328 31.89111328 C-30.67807332 28.76003342 -27.33898676 25.63007012 -24 22.5 C-22.68749491 21.26953668 -21.37499493 20.0390679 -20.0625 18.80859375 C-13.375 12.5390625 -6.6875 6.26953125 0 0 Z " fill="#5E9C79" transform="translate(260,771)"/>
<path d="M0 0 C4.92103472 3.62069802 10.4971985 7.90175174 12.46875 13.81640625 C10.15875 15.46640625 7.84875 17.11640625 5.46875 18.81640625 C4.829375 18.13578125 4.19 17.45515625 3.53125 16.75390625 C-4.32972517 8.95936186 -13.05653034 2.57663973 -24.39453125 1.78515625 C-27.79988798 1.83496037 -30.40970891 2.46985911 -33.53125 3.81640625 C-35.88772001 6.15720382 -35.88772001 6.15720382 -37.53125 8.81640625 C-38.19125 9.80640625 -38.85125 10.79640625 -39.53125 11.81640625 C-39.95399599 16.36092566 -39.18645422 20.57023841 -36.34375 24.19140625 C-32.0405388 28.67131936 -26.92171171 32.33007845 -22.015625 36.1171875 C-5.69519159 48.72883336 -5.69519159 48.72883336 -4.09375 58.48046875 C-3.76183079 65.84492631 -5.27413642 72.90786995 -10.07421875 78.66796875 C-16.61491465 84.74467936 -23.5842527 86.404963 -32.375 86.171875 C-37.74802826 85.56674434 -42.55018223 83.85992123 -47.53125 81.81640625 C-48.25054687 81.52765625 -48.96984375 81.23890625 -49.7109375 80.94140625 C-57.75865319 77.32155019 -65.58800532 71.14604491 -70.53125 63.81640625 C-69.0673889 59.42482296 -66.55293662 58.93693192 -62.53125 56.81640625 C-62.08394531 57.3475 -61.63664062 57.87859375 -61.17578125 58.42578125 C-60.26892578 59.48539063 -60.26892578 59.48539063 -59.34375 60.56640625 C-58.75207031 61.2625 -58.16039062 61.95859375 -57.55078125 62.67578125 C-51.11618672 69.49620253 -41.65762231 74.82636066 -32.31640625 76.3359375 C-27.50619752 76.40851952 -22.86560118 76.03915045 -18.53125 73.81640625 C-17.19791667 71.98307292 -17.19791667 71.98307292 -16.53125 69.81640625 C-16.18964844 69.19765625 -15.84804688 68.57890625 -15.49609375 67.94140625 C-13.741492 64.07702022 -14.18944133 60.77971149 -15.53125 56.81640625 C-20.20872425 49.77813132 -26.76281616 44.99870619 -33.5234375 40.10546875 C-40.22856673 35.00260417 -47.45705932 29.26132544 -49.53125 20.81640625 C-50.36017194 13.66830021 -49.90510054 7.69981582 -45.53125 1.81640625 C-33.29215091 -11.81702059 -14.25053606 -8.99677831 0 0 Z " fill="#5D9B78" transform="translate(420.53125,881.18359375)"/>
<path d="M0 0 C3.23031416 0.6124988 5.26136227 1.69844341 7.87890625 3.66796875 C8.6260791 4.22476318 9.37325195 4.78155762 10.14306641 5.35522461 C10.94147949 5.95987549 11.73989258 6.56452637 12.5625 7.1875 C14.2693649 8.46376418 15.97640121 9.73979913 17.68359375 11.015625 C18.55999512 11.67369141 19.43639648 12.33175781 20.33935547 13.00976562 C25.33774531 16.74869699 30.38078459 20.42721966 35.41625977 24.1159668 C40.68176639 27.98839633 45.85877831 31.96414855 51 36 C49.55746343 39.36591866 47.66735273 41.51047079 45 44 C44.43490723 43.57589844 43.86981445 43.15179687 43.28759766 42.71484375 C40.73705542 40.80495407 38.18112839 38.9024059 35.625 37 C34.29082031 35.99839844 34.29082031 35.99839844 32.9296875 34.9765625 C32.07890625 34.34492187 31.228125 33.71328125 30.3515625 33.0625 C29.56604004 32.47597656 28.78051758 31.88945313 27.97119141 31.28515625 C26.11295871 29.81795083 26.11295871 29.81795083 24 30 C22.68253288 31.44657151 22.68253288 31.44657151 21.3828125 33.375 C20.86460937 34.10460937 20.34640625 34.83421875 19.8125 35.5859375 C19.255625 36.38257813 18.69875 37.17921875 18.125 38 C16.9413876 39.66757836 15.75646588 41.33422808 14.5703125 43 C13.6716748 44.26457031 13.6716748 44.26457031 12.75488281 45.5546875 C10.22560509 49.07906781 7.61886522 52.54195737 5 56 C-0.96710569 63.90358914 -6.75883362 71.92907526 -12.53857422 79.97021484 C-15.67484251 84.32620124 -18.83784518 88.66278463 -22 93 C-25.86142204 92.21616433 -28.01328244 90.57189568 -31 88 C-29.69302984 85.24678614 -28.24417133 82.80366726 -26.453125 80.33984375 C-25.94531494 79.63867432 -25.43750488 78.93750488 -24.91430664 78.21508789 C-24.36508545 77.46348389 -23.81586426 76.71187988 -23.25 75.9375 C-22.67435303 75.14529053 -22.09870605 74.35308105 -21.50561523 73.53686523 C-15.64487676 65.48359749 -9.73369433 57.46734438 -3.81445312 49.45703125 C-0.04727587 44.35572986 3.7105894 39.24755768 7.47045898 34.14086914 C8.02032471 33.39442139 8.57019043 32.64797363 9.13671875 31.87890625 C9.85927856 30.89772827 9.85927856 30.89772827 10.59643555 29.89672852 C12.05574822 27.92466378 13.52598151 25.9610902 15 24 C13.46070721 19.43520068 9.86381996 17.4655861 6.0625 14.875 C5.11213867 14.21177734 5.11213867 14.21177734 4.14257812 13.53515625 C1.4482998 11.65964389 -1.26858126 9.82094583 -4 8 C-2.87548273 5.0280615 -1.77706209 2.66559313 0 0 Z " fill="#5F9C7A" transform="translate(301,815)"/>
<path d="M0 0 C2.9719385 1.12451727 5.33440687 2.22293791 8 4 C6.29816715 9.11575056 3.32246469 13.35015815 0.375 17.8125 C-0.140625 18.60076172 -0.65625 19.38902344 -1.1875 20.20117188 C-2.45441417 22.1367352 -3.72532964 24.06953942 -5 26 C-1.76483419 28.65674752 1.50577232 31.05595261 5.04296875 33.29296875 C6.51141235 34.22604858 6.51141235 34.22604858 8.00952148 35.17797852 C9.05825439 35.84112061 10.1069873 36.5042627 11.1875 37.1875 C13.43295795 38.61615667 15.67789392 40.0455913 17.921875 41.4765625 C18.49949081 41.84469559 19.07710663 42.21282867 19.67222595 42.59211731 C25.5598302 46.34880299 31.41794949 50.15013406 37.26480103 53.96987915 C38.89014128 55.03156489 40.51670791 56.09137241 42.14331055 57.15112305 C48.51373707 61.31790151 54.7934442 65.59276966 61 70 C60.42647107 73.87132028 58.51295648 76.08172796 56 79 C40.94908766 69.41309592 25.96398195 59.73490534 11.0390625 49.953125 C3.38110557 44.93509055 -4.30550774 39.96176869 -12 35 C-12.21398437 35.64324219 -12.42796875 36.28648437 -12.6484375 36.94921875 C-14.53258317 41.20216027 -17.0659381 44.9381842 -19.625 48.8125 C-20.140625 49.60076172 -20.65625 50.38902344 -21.1875 51.20117188 C-22.45441417 53.1367352 -23.72532964 55.06953942 -25 57 C-31.875 53.25 -31.875 53.25 -33 51 C-32.06640625 49.1184082 -32.06640625 49.1184082 -30.5625 46.80078125 C-30.0041748 45.93195312 -29.44584961 45.063125 -28.87060547 44.16796875 C-27.94465576 42.75451172 -27.94465576 42.75451172 -27 41.3125 C-26.37367676 40.343125 -25.74735352 39.37375 -25.10205078 38.375 C-23.07622938 35.2445961 -21.03867301 32.12204659 -19 29 C-17.62199381 26.87916741 -16.24438639 24.75807566 -14.8671875 22.63671875 C-9.94674114 15.06785164 -5.0250076 7.50001134 0 0 Z " fill="#5C9A78" transform="translate(848,716)"/>
<path d="M0 0 C3.76591888 1.68065801 5.1379634 3.27592679 7 7 C7 7.66 7 8.32 7 9 C5.29785156 10.3059082 5.29785156 10.3059082 2.890625 11.80078125 C1.99964111 12.36007324 1.10865723 12.91936523 0.19067383 13.49560547 C-0.77974854 14.09518066 -1.7501709 14.69475586 -2.75 15.3125 C-4.76245902 16.57043107 -6.77416051 17.82957473 -8.78515625 19.08984375 C-10.33033936 20.05639893 -10.33033936 20.05639893 -11.90673828 21.04248047 C-14.89676185 22.93466744 -17.85726649 24.86451836 -20.80859375 26.81640625 C-21.71448242 27.41477295 -22.62037109 28.01313965 -23.55371094 28.62963867 C-25.28548093 29.77724932 -27.01410278 30.92962737 -28.73925781 32.0871582 C-29.52010742 32.60238037 -30.30095703 33.11760254 -31.10546875 33.6484375 C-31.78762451 34.10395996 -32.46978027 34.55948242 -33.17260742 35.02880859 C-35 36 -35 36 -38 36 C-38 36.66 -38 37.32 -38 38 C-39.80419922 39.42041016 -39.80419922 39.42041016 -42.3046875 41.0390625 C-43.19800781 41.61914062 -44.09132812 42.19921875 -45.01171875 42.796875 C-45.95660156 43.40015625 -46.90148437 44.0034375 -47.875 44.625 C-48.81214844 45.23601563 -49.74929687 45.84703125 -50.71484375 46.4765625 C-57.73223005 51 -57.73223005 51 -60 51 C-56.44534192 57.64154492 -52.52153149 63.96393399 -48.375 70.25 C-40.28176148 82.57213793 -40.28176148 82.57213793 -39 85 C-39.5 87.1875 -39.5 87.1875 -41 89 C-43.625 90.25 -43.625 90.25 -46 91 C-50.10909617 87.37546706 -52.66677726 82.99809112 -55.5 78.375 C-58.74227909 73.13774593 -62.00900313 67.93553708 -65.48828125 62.8515625 C-66.32359375 61.62880615 -66.32359375 61.62880615 -67.17578125 60.38134766 C-68.25208963 58.81537034 -69.33652458 57.2549421 -70.4296875 55.70068359 C-70.91308594 54.99508301 -71.39648438 54.28948242 -71.89453125 53.5625 C-72.32612549 52.94503906 -72.75771973 52.32757812 -73.20239258 51.69140625 C-74 50 -74 50 -73 47 C-70.69460557 45.3910268 -68.41159156 43.93270116 -66 42.5 C-64.51874339 41.5976462 -63.03829876 40.69395841 -61.55859375 39.7890625 C-60.79659668 39.32532227 -60.03459961 38.86158203 -59.24951172 38.38378906 C-55.81611796 36.27173395 -52.43886737 34.0766746 -49.0625 31.875 C-42.94510813 27.89674339 -36.80535991 23.95502545 -30.65380859 20.02978516 C-20.3609731 13.46168387 -10.1136864 6.84112771 0 0 Z " fill="#5F9C7A" transform="translate(226,721)"/>
<path d="M0 0 C4.47870656 2.15937638 7.18198188 4.92952939 10 9 C11.86958729 14.60876188 11.51209813 20.16247142 9.9375 25.8125 C7.29422538 30.16111308 3.93343093 33.08583415 -0.98046875 34.6171875 C-7.09089805 35.77545069 -11.78191084 35.47872611 -17 32 C-21.5487534 27.24448508 -23.73287129 23.71580855 -24.375 17.1875 C-24.18725729 11.65952018 -22.3086927 7.29204347 -18.375 3.38671875 C-12.75625395 -0.76881219 -6.76786406 -1.02947791 0 0 Z " fill="#5A9975" transform="translate(946,580)"/>
<path d="M0 0 C4.83735148 2.61364524 8.06265925 6.09032151 9.79296875 11.28125 C10.32682017 17.24601294 10.34567024 22.23870595 6.79296875 27.28125 C2.48930962 31.6052574 -0.63362802 34.06316498 -6.89453125 34.59375 C-12.35163694 34.503467 -16.78551978 32.52294626 -20.78515625 28.8203125 C-24.88146351 24.18253934 -25.57944413 20.54541282 -25.48828125 14.4375 C-24.8113672 9.24782561 -22.36062466 5.35244388 -18.58203125 1.84375 C-13.13850484 -1.73751738 -6.22347977 -2.02676155 0 0 Z " fill="#599875" transform="translate(137.20703125,580.71875)"/>
<path d="M0 0 C7.1118841 6.9062684 12.05304591 14.87428481 16.9375 23.4375 C17.33936523 24.13593018 17.74123047 24.83436035 18.15527344 25.55395508 C21 30.63621135 21 30.63621135 21 34 C7.635 36.475 7.635 36.475 -6 39 C-6 25.23672435 -3.78557556 13.1208784 0 0 Z " fill="#FCFDFD" transform="translate(450,146)"/>
<path d="M0 0 C2.64 1.32 5.28 2.64 8 4 C7.34 5.98 6.68 7.96 6 10 C5.34 10 4.68 10 4 10 C3.67 11.65 3.34 13.3 3 15 C2.34 15 1.68 15 1 15 C0.67 16.65 0.34 18.3 0 20 C-0.66 20 -1.32 20 -2 20 C-2.33 21.65 -2.66 23.3 -3 25 C-3.66 25 -4.32 25 -5 25 C-5.33 26.32 -5.66 27.64 -6 29 C-7.98 28.34 -9.96 27.68 -12 27 C-11.51310136 20.8833358 -8.76417973 16.04309822 -6 10.6875 C-5.5359375 9.76904297 -5.071875 8.85058594 -4.59375 7.90429688 C-1.16870301 1.16870301 -1.16870301 1.16870301 0 0 Z " fill="#619D7B" transform="translate(359,854)"/>
</svg>
